<?xml version="1.0" standalone="no"?><!DOCTYPE svg PUBLIC "-//W3C//DTD SVG 1.1//EN" "http://www.w3.org/Graphics/SVG/1.1/DTD/svg11.dtd"><svg t="1725786851247" class="icon" viewBox="0 0 1024 1024" version="1.1" xmlns="http://www.w3.org/2000/svg" p-id="6746" xmlns:xlink="http://www.w3.org/1999/xlink" width="64" height="64"><path d="M252.768 160.768a90.88 90.88 0 0 0-9.28 5.76 217.6 217.6 0 0 0-27.904 24.192 429.248 429.248 0 0 0-36.288 41.504c-9.6 11.296-19.52 37.92-20.032 55.04l-0.576 4.832c-2.944 30.72 3.04 69.792 18.944 115.008 28.16 80.064 83.136 164.256 165.792 250.56 84.864 88.64 169.696 145.472 252.32 171.808 24.64 7.84 48.096 12.608 70.112 14.432a38.944 38.944 0 0 1-6.4 77.6 395.776 395.776 0 0 1-87.36-17.856c-95.488-30.4-191.264-94.304-284.928-192.096-90.144-94.176-151.008-187.68-182.976-278.592-19.616-55.744-27.072-105.952-23.232-146.208 0.192-1.984 0.416-3.84 0.64-5.44 1.632-33.024 17.6-75.104 37.024-97.824a506.048 506.048 0 0 1 41.856-47.776 291.744 291.744 0 0 1 38.336-32.96c33.28-23.296 63.904-29.856 88.32-15.36 20.992 9.6 38.4 37.376 76.768 115.52l9.6 19.776a3785.728 3785.728 0 0 1 54.24 118.272c10.368 23.488 7.584 55.104-6.752 76.384l-44.416 65.92c1.664 3.84 4.544 8.928 8.64 15.008 10.912 16.384 28.864 37.76 53.792 63.136 34.208 34.848 64.32 58.4 89.28 70.816 5.12 2.56 9.696 4.448 13.536 5.696l57.408-42.4c20.896-14.112 52.032-17.376 75.264-8l9.536 3.776a3480.288 3480.288 0 0 1 100.32 42.176c7.84 3.488 15.36 6.848 22.464 10.112 70.08 32.032 95.456 47.168 105.056 68.064 23.072 43.904-2.368 89.152-69.6 148.48a735.232 735.232 0 0 1-24.64 20.768 38.944 38.944 0 0 1-48.32-61.088 657.664 657.664 0 0 0 21.44-18.08c17.088-15.104 31.68-30.592 41.248-43.52 3.072-4.192 5.504-7.936 7.168-11.008a233.216 233.216 0 0 0-9.28-5.44c-13.28-7.424-32-16.64-55.456-27.36a3025.536 3025.536 0 0 0-128.8-54.592c0.512 0.224-3.392 0.64-2.88 0.256l-74.752 50.432a39.744 39.744 0 0 1-20.928 6.656c-14.24 0.32-32.48-4.8-53.44-15.2-33.28-16.544-70.08-45.12-110.176-85.984-66.848-68.096-94.08-117.504-83.328-154.56 1.28-4.416 3.04-8.32 5.728-12.48l50.56-75.104a77.216 77.216 0 0 0-4.32-11.424 4172.448 4172.448 0 0 0-48.8-105.984c-3.2-6.656-6.272-13.056-9.28-19.2a1091.04 1091.04 0 0 0-32.864-62.72 289.28 289.28 0 0 0-8.384-13.728z" fill="#3D3D3D" p-id="6747"></path></svg>