<svg xmlns="http://www.w3.org/2000/svg" xmlns:xlink="http://www.w3.org/1999/xlink" width="316.8343200683594" height="263.0029296875" viewBox="0 0 316.8343200683594 263.0029296875" fill="none">
<path d="M158.24 26.0731C170.212 36.6001 180.583 50.5641 189.667 64.3111C199.111 78.6031 208.379 94.1351 214.01 110.144C219.639 126.144 221.611 142.556 216.549 158.651C206.567 190.389 173.807 205.083 142.821 213.552C116.538 220.737 90.2883 213.233 65.6703 199.71C63.9133 198.745 62.1313 197.775 60.3353 196.797C47.9463 190.055 34.8433 182.924 24.0773 174.129C11.7713 164.077 2.64733 151.952 1.16533 135.914C-0.284672 120.231 7.32533 108.15 18.0903 97.0311C23.0793 91.8771 28.7093 86.9661 34.3903 82.0121L35.7423 80.8331C41.8623 75.4891 47.9813 70.0731 53.2653 64.2831C58.4093 58.6471 63.1973 52.3031 67.9253 45.9971L68.4773 45.2601C73.0273 39.1901 77.5323 33.1801 82.2933 27.8191C92.2073 16.6581 103.074 8.49208 117.428 8.50808C132.78 8.52508 146.274 15.5511 158.24 26.0731Z" stroke="rgba(0, 0, 0, 1.00)" stroke-width="1.977"      fill="#FFFFFF" >
</path>
<path d="M69.0423 151.008C66.0903 119.065 100.163 102.017 120.947 79.241C141.197 57.051 155.972 23.593 185.284 23.625C216.363 23.659 239.681 52.092 257.72 79.39C276.466 107.76 294.693 141.308 284.488 173.753C274.423 205.756 241.444 220.436 210.717 228.835C184.309 236.053 158.01 228.491 133.498 215.025C106.074 199.96 72.0483 183.532 69.0423 151.008Z"   fill="url(#linear_fill_k_VhsXLRyJyfX9ayavsP9)" >
</path>
<path d="M184.431 183.219L184.431 197.944C171.774 205.479 157.192 210.649 143.081 214.506C116.445 221.787 89.9183 214.159 65.1943 200.577C63.4423 199.614 61.6643 198.647 59.8683 197.669C54.0453 194.501 48.0433 191.234 42.1903 187.741L42.1903 183.219C42.1903 164.76 57.1543 149.796 75.6133 149.796L151.008 149.796C169.467 149.796 184.431 164.76 184.431 183.219Z"   fill="#FDEB5A" >
</path>
<path d="M185.074 182.086L185.074 196.816C172.417 204.351 157.835 209.519 143.724 213.376C117.088 220.657 90.5583 213.028 65.8343 199.446C64.0823 198.483 62.3103 197.514 60.5143 196.536C54.6913 193.368 48.6873 190.099 42.8343 186.606L42.8343 182.086C42.8343 163.627 57.7953 148.666 76.2543 148.666L151.654 148.666C170.113 148.666 185.074 163.627 185.074 182.086Z">
</path>
<g mask="url(#mask-Gm79weE2PfwG4Mk7LtxYI)">
<path d="M40.8563 182.088L44.8163 182.088C44.8163 164.721 58.8893 150.648 76.2563 150.648L76.2563 146.688C56.7053 146.688 40.8563 162.537 40.8563 182.088ZM76.2573 150.648L76.2573 146.688L151.647 146.688L151.647 150.648L76.2573 150.648ZM151.652 150.648L151.652 146.688C171.203 146.688 187.052 162.537 187.052 182.088L183.102 182.088C183.102 164.721 169.019 150.648 151.652 150.648ZM42.8378 186.609L40.8563 186.609L40.8563 182.089L44.8163 182.089L44.8163 185.487C44.4939 185.296 44.1719 185.105 43.8503 184.913L42.8378 186.609ZM59.568 198.272C53.7507 195.107 47.7125 191.83 41.8203 188.313L42.8378 186.609L44.8163 186.609L44.8163 185.487C50.324 188.742 55.9546 191.807 61.4603 194.803L61.4597 194.804L61.4573 194.803L59.568 198.272ZM64.8869 201.183C63.1391 200.223 61.3632 199.251 59.5673 198.273L59.568 198.272L59.5703 198.273L61.4597 194.804C63.2539 195.78 65.0321 196.748 66.7873 197.713L66.7867 197.714L66.7863 197.714L64.8869 201.183ZM144.244 215.284C116.903 222.756 89.8227 214.883 64.8863 201.184L64.8869 201.183L64.8873 201.183L66.7867 197.714C91.2976 211.178 117.275 218.552 143.206 211.464L143.206 211.464L143.204 211.465L144.244 215.284ZM185.071 196.809L186.084 198.515C173.21 206.179 158.437 211.405 144.244 215.285L144.244 215.284L144.246 215.284L143.206 211.464C156.873 207.728 170.882 202.783 183.098 195.683L183.098 196.809L185.071 196.809ZM185.071 196.809L184.064 195.115C183.744 195.306 183.422 195.495 183.098 195.683L183.098 182.089L187.048 182.089L187.048 196.809L185.071 196.809ZM40.8563 186.611L40.8563 187.731L41.8163 188.311L42.8363 186.611L40.8563 186.611ZM186.085 198.514L187.055 197.934L187.055 196.814L185.075 196.814L186.085 198.514Z" fill-rule="evenodd"  fill="#000000" >
</path>
</g>
<path d="M79.3763 104.327C86.9733 106.746 95.0933 102.545 97.5133 94.946C99.9323 87.346 95.7353 79.224 88.1383 76.805C80.5413 74.386 72.4203 78.586 70.0013 86.186C67.5813 93.786 71.7783 101.908 79.3763 104.327Z"   fill="#000000" >
</path>
<path d="M89.5226 67.6172C91.1569 69.4289 91.6976 71.9837 90.9226 74.2972C89.7901 77.8558 85.9813 79.8196 82.4226 78.6872C78.8642 77.5534 76.8994 73.7558 78.0326 70.1972C78.7382 67.8616 80.6517 66.0804 83.0326 65.5472C85.4136 65.0141 87.8884 65.8055 89.5226 67.6172ZM144.841 80.0179C152.438 82.4369 156.641 90.5579 154.221 98.1579C151.801 105.758 143.679 109.966 136.081 107.548C128.484 105.129 124.281 97.0079 126.701 89.4079C129.121 81.8079 137.243 77.5989 144.841 80.0179Z" fill-rule="evenodd"  fill="#000000" >
</path>
<path d="M105.326 59.9544C112.923 62.3724 117.126 70.4944 114.706 78.0944C112.286 85.6934 104.163 89.9034 96.5659 87.4844C88.9679 85.0654 84.7669 76.9344 87.1859 69.3344C89.6059 61.7344 97.7279 57.5344 105.326 59.9544ZM142.863 69.988C146.421 71.1218 148.386 74.9294 147.253 78.488C146.12 82.0472 142.312 84.0104 138.753 82.878C135.194 81.7442 133.229 77.9366 134.363 74.378C135.495 70.8189 139.303 68.8556 142.863 69.988Z" fill-rule="evenodd"  fill="#000000" >
</path>
<path d="M145.507 120.389C142.21 130.01 134.458 137.567 124.671 141.044L124.762 149.798C124.787 152.242 124.101 154.457 122.78 156.363C120.764 159.696 117.002 161.864 112.744 161.908C108.566 161.951 104.838 159.861 102.596 156.572C101.394 154.692 100.582 152.493 100.557 150.049L100.465 141.151C89.2083 137.315 80.6453 128.275 77.7803 117.282C75.1212 118.563 71.9863 118.363 69.5113 116.755C65.5953 114.223 64.4583 109.019 66.9723 105.132C69.2623 101.593 73.7893 100.366 77.5373 102.089C81.1293 86.2401 96.4583 74.9611 114.046 76.1561C131.119 77.3161 144.641 89.8441 146.898 105.398C149.41 104.457 152.219 104.764 154.468 106.224C158.384 108.757 159.52 113.961 157.006 117.848C154.523 121.687 149.406 122.805 145.507 120.389Z"   fill="#F3C29E" >
</path>
<path d="M121.974 156.956C119.958 160.289 116.202 162.462 111.944 162.506C107.766 162.549 104.036 160.455 101.794 157.166C100.592 155.286 99.7793 153.09 99.7543 150.646L99.6643 141.746C88.4073 137.91 79.8393 128.869 76.9743 117.876C74.3152 119.157 71.1893 118.964 68.7143 117.356C64.7983 114.824 63.6603 109.613 66.1743 105.726C68.4643 102.187 72.9863 100.963 76.7343 102.686C80.3263 86.837 95.6563 75.561 113.244 76.756C130.317 77.916 143.837 90.442 146.094 105.996C148.606 105.055 151.415 105.356 153.664 106.816C157.58 109.349 158.718 114.559 156.204 118.446C153.721 122.285 148.603 123.402 144.704 120.986C141.407 130.607 133.661 138.159 123.874 141.636L123.964 150.396C123.989 152.84 123.295 155.05 121.974 156.956Z">
</path>
<g mask="url(#mask-bU0Jilk9SlWKnPb5xX03A)">
<path d="M113.107 78.7285L113.377 74.7785C95.6521 73.5741 79.9922 84.4206 75.3512 100.158C71.2704 99.3028 66.9068 100.953 64.5106 104.657L64.6192 104.728L64.5064 104.655C61.3914 109.471 62.8154 115.897 67.6364 119.015L67.6376 119.013C70.0391 120.571 72.9415 121.057 75.6668 120.425C79.0457 130.726 87.1855 139.123 97.6995 143.141L97.7756 150.668L97.7787 150.668C97.8093 153.551 98.7681 156.107 100.129 158.235L101.824 157.151L101.773 157.185L100.129 158.239L100.149 158.259L100.159 158.279L101.596 157.306L100.161 158.285C102.758 162.094 107.09 164.536 111.961 164.485L111.921 160.525C108.434 160.562 105.318 158.823 103.431 156.055L103.428 156.057C102.403 154.438 101.75 152.612 101.729 150.628L101.736 150.628L101.646 141.728L99.6666 141.748L99.6673 141.746L101.644 141.726L101.624 140.326L100.304 139.876L100.302 139.879C89.645 136.247 81.5844 127.698 78.8956 117.381L78.8904 117.382L78.2906 115.053L76.1206 116.093L76.9797 117.881L76.9757 117.882L76.1156 116.102C74.0774 117.083 71.682 116.925 69.7856 115.692L69.7844 115.693C66.775 113.746 65.9228 109.762 67.8364 106.805L67.8335 106.803C69.5754 104.113 73.0342 103.156 75.9106 104.477L76.7352 102.683L78.6666 103.118C82.0296 88.2775 96.4286 77.5955 113.107 78.7285ZM69.7844 115.693L69.7864 115.695L67.6376 119.013L67.6356 119.012L69.7844 115.693ZM76.9797 117.881L78.8904 117.382L78.8906 117.383L76.9806 117.883L76.9797 117.881ZM100.302 139.879L100.306 139.881L99.6673 141.746L99.6636 141.746L100.302 139.879ZM101.596 157.306L101.773 157.185L101.799 157.169L101.596 157.306ZM103.428 156.057L101.824 157.151L103.459 156.105C103.448 156.089 103.438 156.073 103.428 156.057ZM101.729 150.628L101.729 150.625L97.7786 150.665L97.7787 150.668L101.729 150.628ZM99.6666 141.748L97.6856 141.768L97.6995 143.141C98.1375 143.309 98.5796 143.469 99.0256 143.621L99.6666 141.748ZM76.9757 117.882L77.8356 119.662C77.1348 119.999 76.4073 120.253 75.6668 120.425C75.4458 119.752 75.2452 119.07 75.0656 118.381L76.9757 117.882ZM67.8335 106.803L67.8306 106.807L64.6192 104.728L67.8335 106.803ZM76.7352 102.683L74.8066 102.248C74.9666 101.543 75.1483 100.846 75.3512 100.158C76.1019 100.315 76.843 100.558 77.5606 100.887L76.7352 102.683ZM145.934 106.018L146.097 105.995L146.098 105.995L145.934 106.018ZM144.14 106.275L145.934 106.018L144.141 106.28L144.14 106.275ZM144.14 106.275L144.14 106.275L144.49 108.705L146.79 107.845L146.582 107.289L146.793 107.85C148.718 107.129 150.869 107.359 152.593 108.48L154.743 105.16C152.63 103.789 150.116 103.242 147.67 103.57C144.398 88.0616 130.554 75.9466 113.381 74.7798L113.111 78.7298C129.3 79.8297 142.021 91.692 144.14 106.275ZM146.582 107.289L146.098 105.995L146.1 105.995L146.582 107.289ZM78.1296 105.496L75.9096 104.486L76.7396 102.686L78.6596 103.126L78.1296 105.496ZM148.051 105.71L146.097 105.995L145.403 104.14C146.142 103.863 146.903 103.674 147.67 103.57C147.819 104.277 147.946 104.99 148.051 105.71ZM154.743 105.161L152.593 108.481C155.603 110.428 156.456 114.413 154.543 117.371L154.544 117.372C152.654 120.293 148.74 121.157 145.745 119.301L145.741 119.306L143.645 117.999L142.835 120.349L142.836 120.349C139.745 129.364 132.459 136.488 123.208 139.775L123.577 140.818L123.208 139.778L121.878 140.248L121.888 141.658L123.867 141.638L123.868 141.641L121.893 141.661L121.983 150.411L125.943 150.371L125.867 143C134.868 139.412 142.124 132.484 145.797 123.681C150.202 125.187 155.226 123.599 157.865 119.521L157.863 119.52C160.976 114.704 159.563 108.278 154.743 105.161ZM144.703 120.988L142.836 120.349L142.838 120.345L144.706 120.984L144.703 120.988ZM144.707 120.985L144.706 120.984L145.741 119.306L145.745 119.309L144.707 120.985ZM144.707 120.985L144.705 120.989L144.703 120.988L143.665 122.671C144.349 123.095 145.065 123.431 145.797 123.681C146.079 123.006 146.339 122.321 146.578 121.625L144.707 120.985ZM157.863 119.52L157.863 119.521L154.544 117.372L154.545 117.371L157.863 119.52ZM125.867 143C125.425 143.177 124.978 143.345 124.528 143.505L123.868 141.641L125.853 141.621L125.867 143ZM123.867 141.638L123.577 140.818L123.868 141.638L123.867 141.638ZM120.317 155.884L120.356 155.835L120.754 156.111L121.949 156.944L121.428 156.629L120.287 155.934L120.317 155.884ZM123.671 157.986C125.186 155.759 125.963 153.179 125.934 150.374L121.984 150.414C122.005 152.456 121.437 154.27 120.354 155.834L120.356 155.835L120.357 155.834L120.754 156.111L122.02 156.987L121.949 156.944L121.977 156.964L121.428 156.629L120.283 155.937C118.635 158.66 115.523 160.49 111.923 160.527L111.963 164.487C116.878 164.436 121.289 161.929 123.673 157.987L123.671 157.986ZM123.671 157.986L122.02 156.987L123.604 158.084C123.626 158.051 123.649 158.019 123.671 157.986Z" fill-rule="evenodd"  fill="#000000" >
</path>
</g>
<path d="M117.249 87.78C126.531 90.933 136.613 85.962 139.767 76.677C142.921 67.392 137.954 57.309 128.671 54.155C119.389 51.002 109.307 55.973 106.153 65.259C102.999 74.544 107.967 84.627 117.249 87.78Z"   fill="#000000" >
</path>
<path d="M103.006 70.6187C107.354 72.0965 109.683 76.8209 108.206 81.1687C106.73 85.517 102.004 87.8445 97.6559 86.3687C93.3082 84.8909 90.9784 80.1666 92.4559 75.8187C93.1646 73.7304 94.6781 72.0141 96.6559 71.0387C98.6337 70.0633 100.918 69.9097 103.006 70.6187ZM143.247 79.5481C148.014 81.1681 150.567 86.3391 148.947 91.1081C147.328 95.8766 142.156 98.4369 137.387 96.8181C132.619 95.1981 130.067 90.0171 131.687 85.2481C133.307 80.4791 138.479 77.9281 143.247 79.5481Z" fill-rule="evenodd"  fill="#000000" >
</path>
<path d="M93.5674 80.2964C98.6274 82.0154 101.336 87.5054 99.6174 92.5664C97.8974 97.6284 92.4064 100.345 87.3474 98.6264C82.2874 96.9074 79.5784 91.4074 81.2974 86.3464C83.0164 81.2844 88.5074 78.5774 93.5674 80.2964ZM146.58 95.2854C149.306 96.2408 150.749 99.2104 149.82 101.945C148.891 104.68 145.934 106.158 143.19 105.255C140.438 104.321 138.965 101.327 139.9 98.5754C140.835 95.8235 143.828 94.3507 146.58 95.2854Z" fill-rule="evenodd"  fill="#000000" >
</path>
<path d="M85.1564 103.95C86.6891 103.194 87.8574 101.858 88.4064 100.24C89.185 98.0511 88.7296 95.6145 87.2064 93.8601C85.6833 92.1058 83.333 91.3066 81.0564 91.7701C78.7798 92.2336 76.9224 93.8899 76.2064 96.1001C75.6564 97.7178 75.7714 99.4874 76.5264 101.02C77.2815 102.553 78.6187 103.72 80.2364 104.27C81.8544 104.82 83.6238 104.706 85.1564 103.95ZM99.368 118.829C99.1892 119.754 99.793 120.65 100.718 120.829L101.368 117.479C100.443 117.3 99.5468 117.904 99.368 118.829ZM123.761 125.29L123.762 125.287C124.685 125.463 125.579 124.86 125.757 123.936C125.936 123.011 125.332 122.115 124.407 121.936L124.066 123.696L124.401 121.94L101.371 117.48L100.721 120.83L123.761 125.29ZM124.066 123.696L123.757 125.286L123.762 125.287L124.066 123.696Z" fill-rule="evenodd"  fill="#000000" >
</path>
<path d="M113.012 244.023C137.463 244.023 157.284 224.202 157.284 199.752C157.284 175.302 137.463 155.481 113.012 155.481C88.5623 155.481 68.7413 175.302 68.7413 199.752C68.7413 224.202 88.5623 244.023 113.012 244.023Z"   fill="#FE2C55" >
</path>
<path d="M136.338 212.821C136.989 213.472 136.989 214.528 136.338 215.179L129.305 222.212C128.654 222.863 127.599 222.863 126.947 222.212L90.7293 185.994C90.4163 185.681 90.2404 185.257 90.2404 184.815C90.2404 184.373 90.4163 183.948 90.7293 183.636L97.7613 176.603C98.413 175.952 99.4687 175.952 100.12 176.603L136.338 212.821Z"   fill="#FFFFFF" >
</path>
<path d="M90.9653 212.767L127.183 176.549C127.835 175.898 128.89 175.898 129.541 176.549L136.574 183.582C137.225 184.234 137.225 185.289 136.574 185.941L100.356 222.158C100.044 222.471 99.6196 222.647 99.1773 222.647C98.735 222.647 98.3108 222.471 97.9983 222.158L90.9653 215.126C90.3144 214.474 90.3144 213.419 90.9653 212.767Z"   fill="#FFFFFF" >
</path>
<path d="M149.927 212.494C151.106 211.899 152.473 211.8 153.726 212.216L159.795 214.218C161.05 214.629 162.09 215.523 162.684 216.702C163.278 217.882 163.378 219.249 162.961 220.502L162.894 220.704C162.483 221.959 161.589 222.998 160.41 223.593C159.231 224.187 157.864 224.287 156.61 223.871L150.541 221.868C149.287 221.457 148.247 220.563 147.653 219.383C147.059 218.204 146.959 216.837 147.375 215.584L147.442 215.382C147.853 214.127 148.747 213.088 149.927 212.494Z" stroke="rgba(0, 0, 0, 1.00)" stroke-width="1.977"      fill="#F3C29E" >
</path>
<path d="M160.414 212.34L154.345 210.337C153.091 209.926 152.051 209.032 151.457 207.852C150.863 206.673 150.763 205.306 151.179 204.053L151.246 203.851C151.657 202.596 152.551 201.557 153.731 200.963C154.91 200.368 156.277 200.269 157.53 200.685L163.599 202.687C164.854 203.098 165.893 203.992 166.487 205.171C167.081 206.351 167.181 207.718 166.765 208.971L166.698 209.173C166.287 210.428 165.393 211.467 164.214 212.062C163.035 212.656 161.668 212.756 160.414 212.34Z" stroke="rgba(0, 0, 0, 1.00)" stroke-width="1.977"      fill="#F3C29E" >
</path>
<path d="M170.57 197.443L170.503 197.646C170.092 198.9 169.198 199.94 168.019 200.534C166.84 201.128 165.472 201.228 164.219 200.812L158.15 198.809C156.895 198.398 155.856 197.504 155.262 196.325C154.668 195.145 154.568 193.778 154.984 192.525L155.05 192.323C155.462 191.068 156.356 190.029 157.535 189.434C158.715 188.84 160.082 188.741 161.335 189.157L167.403 191.159C168.658 191.57 169.698 192.464 170.292 193.643C170.886 194.822 170.986 196.19 170.57 197.443Z" stroke="rgba(0, 0, 0, 1.00)" stroke-width="1.977"      fill="#F3C29E" >
</path>
<path d="M160.698 213.5L154.011 211.35C153.993 211.343 153.978 211.329 153.97 211.311C153.961 211.294 153.958 211.273 153.964 211.254C153.971 211.235 153.985 211.219 154.003 211.211C154.021 211.201 154.042 211.199 154.061 211.205L154.068 211.207L160.754 213.358C160.773 213.364 160.789 213.378 160.796 213.396C160.807 213.417 160.807 213.436 160.802 213.454C160.795 213.473 160.781 213.488 160.763 213.497C160.745 213.506 160.725 213.508 160.705 213.502L160.698 213.5Z" stroke="rgba(0, 0, 0, 1.00)" stroke-width="1.977"      fill="#000000" >
</path>
<path d="M157.811 199.818C157.793 199.811 157.778 199.797 157.769 199.78C157.76 199.762 157.758 199.741 157.764 199.722C157.77 199.703 157.785 199.687 157.803 199.679C157.821 199.669 157.841 199.667 157.86 199.673L157.868 199.676L164.554 201.826C164.573 201.832 164.588 201.846 164.596 201.864C164.606 201.882 164.608 201.903 164.601 201.922C164.595 201.941 164.581 201.957 164.563 201.965C164.546 201.975 164.524 201.977 164.505 201.97L164.498 201.968L157.811 199.818Z" stroke="rgba(0, 0, 0, 1.00)" stroke-width="1.977"      fill="#000000" >
</path>
<path d="M64.8403 220.646C64.4322 219.333 64.5639 217.911 65.2064 216.694C65.8489 215.478 66.9493 214.568 68.2643 214.165L74.5823 212.214C75.8958 211.806 77.3177 211.938 78.5339 212.58C79.75 213.223 80.6602 214.323 81.0633 215.638L81.1283 215.848C81.5368 217.161 81.4053 218.583 80.763 219.799C80.1207 221.016 79.0203 221.926 77.7053 222.329L71.3873 224.28C70.0738 224.689 68.6517 224.557 67.4354 223.915C66.219 223.272 65.3086 222.172 64.9053 220.857L64.8403 220.646Z" stroke="rgba(0, 0, 0, 1.00)" stroke-width="1.977"      fill="#F3C29E" >
</path>
<path d="M63.7296 211.911C62.5133 211.269 61.6028 210.169 61.1993 208.854L61.1343 208.643C60.7258 207.33 60.8573 205.908 61.4996 204.691C62.142 203.475 63.2423 202.565 64.5573 202.162L70.8763 200.211C72.1897 199.802 73.6116 199.934 74.8278 200.576C76.044 201.219 76.9543 202.319 77.3573 203.634L77.4223 203.845C77.8305 205.158 77.6989 206.58 77.0566 207.796C76.4143 209.012 75.3142 209.923 73.9993 210.326L67.6813 212.277C66.3678 212.685 64.9459 212.554 63.7296 211.911Z" stroke="rgba(0, 0, 0, 1.00)" stroke-width="1.977"      fill="#F3C29E" >
</path>
<path d="M70.2903 198.321L63.9723 200.271C62.6588 200.679 61.2367 200.548 60.0204 199.906C58.804 199.263 57.8936 198.163 57.4903 196.848L57.4253 196.638C57.0171 195.324 57.1486 193.902 57.7909 192.686C58.4332 191.47 59.5334 190.559 60.8483 190.156L67.1673 188.205C68.4808 187.797 69.9026 187.929 71.1187 188.571C72.3348 189.214 73.245 190.314 73.6483 191.629L73.7133 191.839C74.1216 193.152 73.99 194.574 73.3477 195.791C72.7054 197.007 71.6053 197.917 70.2903 198.321Z" stroke="rgba(0, 0, 0, 1.00)" stroke-width="1.977"      fill="#F3C29E" >
</path>
<path d="M74.8703 210.915C74.8985 210.907 74.9288 210.911 74.9543 210.925C74.9843 210.94 75.0023 210.964 75.0103 210.99C75.0197 211.019 75.0164 211.05 75.0013 211.076C74.988 211.103 74.9641 211.123 74.9353 211.132L74.9283 211.134L68.0003 213.331C67.9721 213.34 67.9417 213.336 67.9163 213.321C67.8892 213.308 67.8689 213.285 67.8603 213.256C67.8519 213.227 67.8551 213.196 67.8693 213.17C67.8829 213.143 67.9067 213.123 67.9353 213.114L67.9423 213.112L74.8703 210.915Z" stroke="rgba(0, 0, 0, 1.00)" stroke-width="1.977"      fill="#000000" >
</path>
<path d="M71.2263 199.127L71.2193 199.129L64.2913 201.326C64.2631 201.334 64.2329 201.331 64.2073 201.316C64.1801 201.303 64.1597 201.279 64.1513 201.25C64.143 201.222 64.1462 201.191 64.1603 201.165C64.1736 201.138 64.1975 201.118 64.2263 201.109L64.2333 201.106L71.1613 198.91C71.1894 198.902 71.2197 198.905 71.2453 198.919C71.2753 198.935 71.2933 198.958 71.3013 198.985C71.3107 199.014 71.3074 199.045 71.2923 199.071C71.2789 199.098 71.255 199.118 71.2263 199.127Z" stroke="rgba(0, 0, 0, 1.00)" stroke-width="1.977"      fill="#000000" >
</path>
<defs>
<linearGradient id="linear_fill_k_VhsXLRyJyfX9ayavsP9" x1="18261.17416381836" y1="33031.728515625" x2="65155.92807006836" y2="26856.21484375" gradientUnits="userSpaceOnUse">
<stop offset="0" stop-color="#979797"  />
<stop offset="1" stop-color="#979797" stop-opacity="0" />
</linearGradient>
<mask id="mask-Gm79weE2PfwG4Mk7LtxYI" style="mask-type:alpha" maskUnits="userSpaceOnUse">
<path fill="white" d="M185.074 182.086L185.074 196.816C172.417 204.351 157.835 209.519 143.724 213.376C117.088 220.657 90.5583 213.028 65.8343 199.446C64.0823 198.483 62.3103 197.514 60.5143 196.536C54.6913 193.368 48.6873 190.099 42.8343 186.606L42.8343 182.086C42.8343 163.627 57.7953 148.666 76.2543 148.666L151.654 148.666C170.113 148.666 185.074 163.627 185.074 182.086Z">
</path>
</mask>
<mask id="mask-bU0Jilk9SlWKnPb5xX03A" style="mask-type:alpha" maskUnits="userSpaceOnUse">
<path fill="white" d="M121.974 156.956C119.958 160.289 116.202 162.462 111.944 162.506C107.766 162.549 104.036 160.455 101.794 157.166C100.592 155.286 99.7793 153.09 99.7543 150.646L99.6643 141.746C88.4073 137.91 79.8393 128.869 76.9743 117.876C74.3152 119.157 71.1893 118.964 68.7143 117.356C64.7983 114.824 63.6603 109.613 66.1743 105.726C68.4643 102.187 72.9863 100.963 76.7343 102.686C80.3263 86.837 95.6563 75.561 113.244 76.756C130.317 77.916 143.837 90.442 146.094 105.996C148.606 105.055 151.415 105.356 153.664 106.816C157.58 109.349 158.718 114.559 156.204 118.446C153.721 122.285 148.603 123.402 144.704 120.986C141.407 130.607 133.661 138.159 123.874 141.636L123.964 150.396C123.989 152.84 123.295 155.05 121.974 156.956Z">
</path>
</mask>
</defs>
</svg>
