<svg xmlns="http://www.w3.org/2000/svg" xmlns:xlink="http://www.w3.org/1999/xlink" width="331.6229553222656" height="261.94189453125" viewBox="0 0 331.6229553222656 261.94189453125" fill="none">
<path d="M14.513 134.869C13.047 119.011 20.742 106.795 31.626 95.5508C36.671 90.3398 42.365 85.3748 48.108 80.3648L49.476 79.1718C55.664 73.7688 61.852 68.2918 67.195 62.4378C72.396 56.7378 77.238 50.3238 82.018 43.9478L82.577 43.2028C87.177 37.0638 91.732 30.9878 96.547 25.5658C106.571 14.2798 117.56 6.02382 132.074 6.03982C147.598 6.05682 161.243 13.1608 173.342 23.7998C185.448 34.4448 195.934 48.5658 205.12 62.4658C214.67 76.9178 224.041 92.6228 229.735 108.811C235.427 124.99 237.422 141.585 232.303 157.86C222.209 189.952 189.083 204.81 157.751 213.375C131.174 220.639 104.631 213.052 79.739 199.378C77.962 198.402 76.16 197.421 74.343 196.432C61.816 189.614 48.567 182.404 37.68 173.511C25.237 163.347 16.011 151.087 14.512 134.869L14.513 134.869Z" stroke="rgba(0, 0, 0, 1.00)" stroke-width="2"      fill="#F8DC29" >
</path>
<path d="M84.83 150.398C81.89 118.584 115.826 101.605 136.526 78.9211C156.694 56.8211 171.41 23.4981 200.603 23.5301C231.557 23.5631 254.781 51.8811 272.746 79.0691C291.418 107.325 309.571 140.738 299.407 173.052C289.382 204.926 256.537 219.546 225.933 227.911C199.632 235.101 173.439 227.568 149.026 214.157C121.712 199.153 87.825 182.791 84.83 150.398Z"   fill="url(#linear_fill_sUE4zRGaBCM_f-kbOFZRm)" >
</path>
<path d="M166.029 148.906C184.694 148.906 199.826 164.037 199.826 182.703L199.826 197.591C187.027 205.21 172.281 210.439 158.012 214.339C131.078 221.701 104.254 213.988 79.254 200.254C77.483 199.281 75.684 198.302 73.869 197.314C67.981 194.111 61.913 190.808 55.995 187.277L55.995 182.702C55.995 164.037 71.126 148.906 89.792 148.906L166.029 148.906Z"   fill="#FF7043" >
</path>
<path d="M57.003 186.312L57.003 181.742C57.003 163.077 72.137 147.942 90.803 147.942L167.033 147.942C185.698 147.942 200.833 163.076 200.833 181.742L200.833 196.632C188.034 204.251 173.292 209.472 159.023 213.372C132.089 220.734 105.263 213.026 80.263 199.292C78.492 198.319 76.688 197.34 74.873 196.352C68.985 193.149 62.921 189.843 57.003 186.312Z">
</path>
<g mask="url(#mask-zg3GcH6Y4lUrbxu0TJmu7)">
<path d="M55.003 181.738L59.003 181.738C59.0052 164.18 73.2417 149.944 90.8 149.942L90.8 145.942C71.0327 145.944 55.0052 161.972 55.003 181.738ZM90.803 145.942L90.803 149.942L167.037 149.942L167.037 145.942L90.803 145.942ZM167.04 149.942C184.599 149.944 198.835 164.179 198.837 181.739L198.834 181.739L198.834 195.484C186.481 202.664 172.313 207.672 158.492 211.449L159.552 215.309C173.905 211.386 188.835 206.099 201.852 198.349L200.832 196.629L200.835 196.629L201.854 198.347L202.834 197.767L202.834 196.629L200.835 196.629L200.834 196.627L202.834 196.627L202.834 181.742L202.837 181.742C202.837 161.973 186.809 145.944 167.04 145.942L167.04 149.942ZM202.834 181.742L198.837 181.742L198.837 181.739L202.834 181.739L202.834 181.742ZM200.832 196.629L199.812 194.909C199.487 195.102 199.161 195.294 198.834 195.484L198.834 196.629L200.832 196.629ZM55.003 181.742L59.003 181.742L59.003 185.175C58.6776 184.983 58.3525 184.79 58.028 184.596L57.0049 186.308L55.003 186.308L55.003 181.742ZM57.0018 186.313L57.0049 186.308L59.003 186.308L59.003 185.175C64.5715 188.466 70.2613 191.566 75.828 194.596L73.918 198.106C68.036 194.905 61.936 191.581 55.978 188.026L56.3899 187.337L57.003 186.313L57.0018 186.313ZM57.0018 186.313L55.003 186.313L55.003 187.443L55.973 188.033L56.3899 187.337L57.0018 186.313ZM75.831 194.594L73.921 198.104C75.737 199.092 77.534 200.073 79.301 201.044L79.3031 201.04C104.518 214.891 131.904 222.864 159.549 215.308L158.489 211.448C132.269 218.615 106.013 211.153 81.229 197.538L79.9715 199.818L81.221 197.534C79.445 196.558 77.646 195.582 75.831 194.594ZM79.9715 199.818L79.299 201.038L79.3031 201.04L79.9715 199.818Z" fill-rule="evenodd"  fill="#000000" >
</path>
</g>
<path d="M93.596 102.929C101.278 105.375 109.489 101.128 111.936 93.4429C114.383 85.7579 110.138 77.5449 102.456 75.0999C94.774 72.6539 86.563 76.9009 84.117 84.5859C81.67 92.271 85.914 100.483 93.596 102.929Z"   fill="#000000" >
</path>
<path d="M103.865 65.8083C105.518 67.6417 106.051 70.2181 105.265 72.5583C104.119 76.1567 100.274 78.1526 96.675 77.0083C93.0774 75.8612 91.0899 72.0167 92.235 68.4183C92.9468 66.0546 94.8863 64.2586 97.295 63.7183C99.7038 63.1781 102.212 63.975 103.865 65.8083ZM159.793 78.3501C167.475 80.7961 171.719 89.0051 169.273 96.6901C166.826 104.375 158.615 108.626 150.933 106.18C143.25 103.734 139.007 95.5251 141.453 87.8401C143.9 80.1551 152.11 75.9041 159.793 78.3501Z" fill-rule="evenodd"  fill="#000000" >
</path>
<path d="M119.84 58.0626C127.523 60.5086 131.767 68.7276 129.32 76.4126C126.874 84.0966 118.663 88.3376 110.98 85.8926C103.298 83.4466 99.0539 75.2376 101.5 67.5526C103.947 59.8686 112.158 55.6176 119.84 58.0626ZM157.79 68.2095C161.339 69.393 163.275 73.2045 162.14 76.7695C161.005 80.3344 157.22 82.3259 153.64 81.2395C150.091 80.0559 148.145 76.2444 149.28 72.6795C150.415 69.1145 154.21 67.1231 157.79 68.2095Z" fill-rule="evenodd"  fill="#000000" >
</path>
<path d="M117.08 155.758C115.865 153.857 115.044 151.633 115.019 149.162L114.925 140.165C103.543 136.287 94.883 127.145 91.987 116.029C89.2976 117.324 86.1276 117.122 83.624 115.497C79.664 112.936 78.515 107.674 81.057 103.743C83.372 100.164 87.951 98.924 91.741 100.666C95.372 84.64 110.872 73.235 128.657 74.444C145.921 75.617 159.593 88.284 161.876 104.012C164.415 103.061 167.254 103.371 169.528 104.848C173.488 107.409 174.637 112.671 172.095 116.601C169.584 120.483 164.412 121.613 160.47 119.172C157.135 128.899 149.297 136.541 139.402 140.056L139.494 148.908C139.52 151.379 138.825 153.619 137.49 155.547C135.452 158.917 131.647 161.109 127.342 161.153C123.117 161.197 119.347 159.084 117.08 155.758Z"   fill="#F3C29E" >
</path>
<path d="M159.763 119.761C156.428 129.488 148.598 137.126 138.703 140.641L138.793 149.491C138.819 151.962 138.118 154.203 136.783 156.131C134.745 159.501 130.948 161.697 126.643 161.741C122.418 161.785 118.64 159.667 116.373 156.341C115.158 154.44 114.338 152.222 114.313 149.751L114.223 140.751C102.841 136.873 94.179 127.727 91.283 116.611C88.5936 117.906 85.4266 117.707 82.923 116.081C78.963 113.52 77.811 108.262 80.353 104.331C82.668 100.752 87.253 99.5094 91.043 101.251C94.674 85.2254 110.168 73.8224 127.953 75.0314C145.217 76.2044 158.89 88.8734 161.173 104.601C163.712 103.65 166.549 103.955 168.823 105.431C172.783 107.992 173.935 113.251 171.393 117.181C168.882 121.063 163.705 122.202 159.763 119.761Z">
</path>
<g mask="url(#mask-xDttHWTGJpiwGCwHKdYSS)">
<path d="M127.817 77.0219L128.087 73.0319C110.166 71.8142 94.3329 82.7821 89.6391 98.6939C85.5123 97.8291 81.0982 99.4957 78.6753 103.242L82.0353 105.412C83.7967 102.69 87.2931 101.734 90.2025 103.071L90.2023 103.071L92.4423 104.101L92.9923 101.691L92.9878 101.69C96.3885 86.6851 110.954 75.8759 127.817 77.0219ZM91.0415 101.253L91.0423 101.251L92.9878 101.69L92.9874 101.692L91.0415 101.253ZM91.04 101.252L91.8753 99.4319C91.1491 99.0982 90.399 98.8531 89.6391 98.6939C89.4336 99.3906 89.2494 100.097 89.0874 100.812L91.04 101.252ZM91.04 101.252L91.0415 101.253L90.7604 101.862L91.04 101.252ZM90.7604 101.862L90.2053 103.072C90.2044 103.071 90.2035 103.071 90.2025 103.071L90.7604 101.862ZM160.317 104.723L161.174 104.599L161.872 106.465L161.874 106.464L161.875 106.467L159.555 107.337L159.195 104.887L160.317 104.723ZM161.176 104.599L163.149 104.314C163.044 103.586 162.915 102.864 162.764 102.149C161.989 102.254 161.22 102.445 160.472 102.725L161.173 104.597L160.317 104.723L159.199 104.884C157.058 90.1362 144.191 78.1362 127.819 77.0242L128.089 73.0342C145.453 74.2134 159.455 86.4672 162.764 102.149C165.237 101.817 167.777 102.369 169.912 103.755L169.912 103.756L169.909 103.754L167.74 107.113C165.999 105.981 163.819 105.736 161.874 106.464L161.176 104.599ZM169.711 116.105L169.709 116.104C171.644 113.113 170.784 109.083 167.739 107.114L167.74 107.113L167.742 107.115L169.912 103.756C174.783 106.908 176.217 113.401 173.073 118.269L169.714 116.1L169.711 116.105ZM159.766 119.758L160.814 118.06C163.843 119.935 167.799 119.055 169.711 116.105L173.069 118.274L173.073 118.269L173.074 118.27C170.408 122.392 165.328 123.999 160.874 122.482C161.157 121.802 161.42 121.111 161.66 120.409L159.766 119.758ZM159.766 119.757L159.766 119.758L158.714 121.46C159.407 121.889 160.132 122.229 160.874 122.482C157.16 131.388 149.821 138.395 140.715 142.023L140.7 140.62L138.699 140.64L138.03 138.759C147.385 135.435 154.755 128.226 157.88 119.11L159.765 119.758L159.766 119.757ZM159.766 119.757L160.815 118.058L158.685 116.738L157.875 119.108L157.88 119.11L157.88 119.109L159.766 119.757ZM138.086 140.646L138.699 140.64L139.37 142.529C139.822 142.368 140.271 142.2 140.715 142.023L140.79 149.47L136.79 149.51L136.7 140.667L138.086 140.646ZM138.086 140.646L138.695 140.637L138.025 138.757L136.685 139.237L136.695 140.667L136.7 140.667L136.7 140.66L138.086 140.646ZM161.176 104.599L161.174 104.599L161.173 104.597L161.175 104.597L161.176 104.599ZM82.033 105.413L78.673 103.243C75.524 108.112 76.958 114.609 81.833 117.763L84.003 114.403C80.959 112.434 80.099 108.404 82.033 105.413ZM92.6054 113.756L93.2154 116.106L91.6796 116.512L91.286 116.615L90.4165 114.816L92.6054 113.756ZM91.2866 116.616L91.6796 116.512L93.2193 116.11C95.9373 126.544 104.091 135.188 114.869 138.86L114.599 139.653L114.222 140.747L114.225 140.747L114.225 140.749L112.223 140.769L112.237 142.155C101.605 138.092 93.3735 129.603 89.9569 119.187C90.7077 119.013 91.4452 118.755 92.1553 118.413L91.2866 116.616ZM91.2848 116.615L91.286 116.615L91.2866 116.616L91.2854 116.616L91.2848 116.615ZM91.2848 116.615L89.3493 117.12C89.5308 117.817 89.7336 118.506 89.9569 119.187C87.2002 119.826 84.2631 119.338 81.8353 117.763L84.0053 114.403C85.9231 115.65 88.3543 115.805 90.4153 114.813L90.4165 114.816L90.4154 114.816L91.2848 116.615ZM112.316 149.769L112.313 149.769L112.237 142.155C112.68 142.325 113.128 142.486 113.579 142.64L114.225 140.749L116.223 140.729L116.313 149.726L112.316 149.766L112.316 149.769ZM115.702 156.775L114.696 157.416C113.32 155.264 112.347 152.683 112.316 149.769L116.313 149.729L116.313 149.726L116.316 149.726C116.337 151.734 116.998 153.58 118.035 155.217L116.387 156.338L116.303 156.391L116.373 156.343L115.702 156.775ZM114.728 157.47L114.723 157.473L114.713 157.443L114.693 157.423L115.702 156.775L116.303 156.391L115.621 156.858L114.725 157.467L114.728 157.47ZM126.658 163.737C121.738 163.786 117.353 161.318 114.728 157.47L115.621 156.858L116.387 156.338L118.066 155.266C118.056 155.25 118.046 155.233 118.035 155.217L118.035 155.217C119.943 158.016 123.09 159.774 126.615 159.737L126.63 160.936L126.658 163.737ZM126.665 163.737L126.63 160.936L126.618 159.737C130.258 159.699 133.412 157.851 135.078 155.097L136.03 155.673L136.786 156.133L136.762 156.116L136.788 156.132L138.433 157.272L138.442 157.26C136.019 161.191 131.594 163.683 126.665 163.737ZM135.146 154.994L135.106 155.043L135.076 155.093L136.03 155.673L136.762 156.116L135.687 155.369L136.788 156.132L138.498 157.167C138.48 157.198 138.461 157.229 138.442 157.26C140.012 154.989 140.823 152.345 140.793 149.472L136.793 149.512C136.814 151.577 136.239 153.411 135.143 154.992L135.146 154.994ZM135.146 154.994L135.146 154.993L135.687 155.369L135.146 154.994ZM126.665 163.737L126.658 163.737L126.658 163.737L126.665 163.737L126.665 163.737ZM114.225 140.747L116.222 140.727L116.212 139.317L114.872 138.857L114.599 139.653L114.225 140.747Z" fill-rule="evenodd"  fill="#000000" >
</path>
</g>
<path d="M143.445 52.1983C152.831 55.3863 157.854 65.5793 154.665 74.9683C151.475 84.3573 141.281 89.3873 131.895 86.1983C122.509 83.0103 117.486 72.8173 120.675 63.4283C123.864 54.0393 134.059 49.0093 143.445 52.1983ZM141.078 114.207C141.132 114.771 142.094 124.97 136.817 130.397C134.409 132.814 131.247 133.922 127.347 133.587C125.13 133.541 122.974 132.866 121.127 131.637C120.06 130.93 119.153 130.099 118.307 129.057C113.701 123.104 115.137 113.566 115.329 112.293C115.338 112.23 115.345 112.188 115.347 112.167C115.562 110.866 116.807 110.091 118.057 110.277C119.364 110.5 120.155 111.741 119.977 112.987C119.979 112.994 119.971 113.056 119.956 113.165C119.788 114.416 118.782 121.929 122.017 126.137C123.334 127.81 125.225 128.741 127.687 128.927C130.15 129.113 132.066 128.538 133.417 127.107C136.584 123.909 136.619 117.027 136.417 114.647C136.296 113.364 137.221 112.209 138.507 112.097C139.792 111.986 140.956 112.914 141.077 114.197L141.078 114.207Z" fill-rule="evenodd"  fill="#000000" >
</path>
<path d="M117.491 68.8467C121.887 70.3411 124.245 75.1203 122.751 79.5167C121.257 83.9132 116.477 86.2592 112.081 84.7667C107.684 83.2724 105.337 78.5032 106.831 74.1067C108.325 69.7087 113.096 67.3527 117.491 68.8467ZM158.185 77.8686C163.006 79.5056 165.583 84.7456 163.945 89.5686C162.306 94.3906 157.066 96.9766 152.245 95.3386C147.425 93.7016 144.847 88.4616 146.485 83.6386C148.123 78.8166 153.364 76.2306 158.185 77.8686Z" fill-rule="evenodd"  fill="#000000" >
</path>
<path d="M107.946 78.6245C113.063 80.3625 115.805 85.9265 114.066 91.0445C112.328 96.1625 106.773 98.9025 101.656 97.1645C96.5404 95.4265 93.7984 89.8625 95.5364 84.7445C97.2754 79.6265 102.83 76.8865 107.946 78.6245ZM164.875 100.546C164.422 101.883 163.462 102.981 162.195 103.606C160.929 104.23 159.462 104.33 158.125 103.876C155.342 102.929 153.849 99.8996 154.795 97.1158C155.396 95.3008 156.931 93.9433 158.805 93.5658C160.68 93.1882 162.609 93.8448 163.865 95.2858C165.122 96.7267 165.505 98.7405 164.875 100.546Z" fill-rule="evenodd"  fill="#000000" >
</path>
<path d="M94.468 102.872C96.1041 103.428 97.8939 103.31 99.4436 102.546C100.993 101.782 102.176 100.433 102.731 98.797C103.509 96.5857 103.039 94.1267 101.501 92.3583C99.9617 90.5898 97.5912 89.7846 95.2936 90.2499C92.996 90.7151 91.1255 92.3791 90.396 94.607C89.2387 98.0137 91.0616 101.714 94.468 102.872Z"   fill="#000000" >
</path>
<path d="M127.609 244.186C152.333 244.186 172.375 224.144 172.375 199.42C172.375 174.697 152.333 154.654 127.609 154.654C102.886 154.654 82.844 174.697 82.844 199.42C82.844 224.144 102.886 244.186 127.609 244.186Z"   fill="#0CE5DE" >
</path>
<path d="M164.941 212.303C166.133 211.703 167.516 211.602 168.783 212.023L174.92 214.047C176.189 214.463 177.24 215.367 177.84 216.56C178.441 217.752 178.543 219.135 178.122 220.402L178.054 220.606C177.638 221.875 176.734 222.926 175.542 223.527C174.35 224.127 172.967 224.229 171.7 223.808L165.563 221.783C164.294 221.367 163.243 220.463 162.642 219.271C162.041 218.079 161.94 216.696 162.361 215.429L162.429 215.224C162.845 213.955 163.749 212.904 164.941 212.303Z" stroke="rgba(0, 0, 0, 1.00)" stroke-width="2"      fill="#F3C29E" >
</path>
<path d="M181.684 204.9C182.285 206.092 182.386 207.475 181.965 208.742L181.898 208.946C181.482 210.215 180.578 211.266 179.386 211.867C178.193 212.468 176.81 212.569 175.543 212.148L169.407 210.123C168.138 209.707 167.087 208.803 166.486 207.611C165.885 206.419 165.784 205.036 166.205 203.769L166.273 203.564C166.689 202.295 167.593 201.244 168.785 200.643C169.977 200.043 171.36 199.942 172.627 200.363L178.764 202.387C180.033 202.803 181.084 203.707 181.684 204.9Z" stroke="rgba(0, 0, 0, 1.00)" stroke-width="2"      fill="#F3C29E" >
</path>
<path d="M182.611 190.731C183.88 191.146 184.931 192.05 185.532 193.243C186.133 194.435 186.234 195.818 185.813 197.085L185.745 197.29C185.329 198.559 184.425 199.61 183.233 200.21C182.041 200.811 180.658 200.912 179.391 200.491L173.254 198.467C171.985 198.051 170.934 197.147 170.334 195.954C169.733 194.762 169.632 193.379 170.053 192.112L170.12 191.908C170.536 190.639 171.44 189.588 172.633 188.987C173.825 188.386 175.208 188.285 176.475 188.706L182.611 190.731Z" stroke="rgba(0, 0, 0, 1.00)" stroke-width="2"      fill="#F3C29E" >
</path>
<path d="M175.929 213.216C175.939 213.234 175.941 213.254 175.935 213.274C175.929 213.293 175.914 213.309 175.896 213.318C175.878 213.328 175.856 213.329 175.837 213.323L175.83 213.321L169.069 211.147C169.05 211.14 169.035 211.126 169.027 211.108C169.017 211.09 169.015 211.069 169.021 211.05C169.028 211.031 169.042 211.015 169.06 211.006C169.078 210.996 169.099 210.994 169.119 211.001L169.126 211.003L175.887 213.177C175.906 213.183 175.921 213.197 175.929 213.216Z" stroke="rgba(0, 0, 0, 1.00)" stroke-width="2"      fill="#000000" >
</path>
<path d="M179.681 201.663L179.674 201.66L172.912 199.486C172.894 199.479 172.879 199.465 172.87 199.448C172.861 199.43 172.859 199.408 172.865 199.389C172.871 199.369 172.885 199.354 172.904 199.346C172.922 199.336 172.943 199.333 172.962 199.34L172.97 199.343L179.731 201.517C179.75 201.523 179.765 201.537 179.773 201.555C179.783 201.573 179.785 201.594 179.779 201.614C179.772 201.633 179.758 201.648 179.739 201.657C179.721 201.667 179.7 201.669 179.681 201.663Z" stroke="rgba(0, 0, 0, 1.00)" stroke-width="2"      fill="#000000" >
</path>
<path d="M95.369 215.696C95.7816 217.024 95.6484 218.462 94.9988 219.692C94.3492 220.922 93.2366 221.842 91.907 222.25L85.518 224.222C84.1901 224.635 82.7524 224.502 81.5227 223.852C80.2931 223.203 79.3727 222.091 78.965 220.761L78.899 220.548C78.4864 219.22 78.6195 217.782 79.2689 216.552C79.9183 215.323 81.0305 214.402 82.36 213.994L88.749 212.022C90.0771 211.609 91.515 211.742 92.7449 212.391C93.9748 213.041 94.8953 214.153 95.303 215.483L95.369 215.696Z" stroke="rgba(0, 0, 0, 1.00)" stroke-width="2"      fill="#F3C29E" >
</path>
<path d="M91.249 207.555C90.5994 208.784 89.4867 209.705 88.157 210.112L81.768 212.085C80.44 212.498 79.0023 212.365 77.7727 211.715C76.543 211.066 75.6226 209.954 75.215 208.624L75.149 208.411C74.7358 207.083 74.8686 205.645 75.5181 204.415C76.1676 203.185 77.2802 202.265 78.61 201.857L84.999 199.884C86.3272 199.471 87.7652 199.604 88.9951 200.253C90.2251 200.903 91.1455 202.016 91.553 203.346L91.619 203.559C92.0318 204.887 91.8987 206.325 91.249 207.555Z" stroke="rgba(0, 0, 0, 1.00)" stroke-width="2"      fill="#F3C29E" >
</path>
<path d="M87.807 191.206L87.872 191.419C88.2852 192.747 88.1523 194.185 87.5029 195.415C86.8534 196.645 85.7408 197.565 84.411 197.973L78.022 199.945C76.6941 200.358 75.2564 200.225 74.0267 199.575C72.797 198.926 71.8766 197.813 71.469 196.484L71.403 196.271C70.9898 194.943 71.1226 193.505 71.7721 192.275C72.4216 191.045 73.5342 190.125 74.864 189.717L81.253 187.745C82.581 187.332 84.019 187.465 85.2489 188.114C86.4788 188.764 87.3993 189.876 87.807 191.206Z" stroke="rgba(0, 0, 0, 1.00)" stroke-width="2"      fill="#F3C29E" >
</path>
<path d="M82.035 212.929L89.041 210.708C89.0696 210.7 89.1001 210.704 89.126 210.718C89.156 210.734 89.174 210.757 89.183 210.784C89.1915 210.813 89.1879 210.845 89.173 210.871C89.1597 210.898 89.1359 210.919 89.107 210.928L89.1 210.93L82.094 213.151C82.0655 213.16 82.0348 213.156 82.009 213.141C81.9818 213.128 81.9612 213.104 81.952 213.075C81.9435 213.046 81.9471 213.015 81.962 212.988C81.9756 212.961 81.9994 212.941 82.028 212.932L82.035 212.929Z" stroke="rgba(0, 0, 0, 1.00)" stroke-width="2"      fill="#000000" >
</path>
<path d="M78.215 200.849C78.2286 200.822 78.2523 200.801 78.281 200.792L78.288 200.79L85.294 198.569C85.3224 198.561 85.353 198.564 85.379 198.578C85.409 198.594 85.427 198.618 85.436 198.645C85.4446 198.674 85.4409 198.705 85.426 198.731C85.413 198.758 85.389 198.779 85.36 198.788L85.353 198.79L78.347 201.012C78.3184 201.02 78.288 201.016 78.262 201.002C78.2347 200.988 78.2142 200.964 78.205 200.935C78.1964 200.906 78.2 200.875 78.215 200.849Z" stroke="rgba(0, 0, 0, 1.00)" stroke-width="2"      fill="#000000" >
</path>
<path     fill="#FFFFFF"  d="M116.597 218.165C118.052 219.62 120.417 219.62 121.872 218.165L125.57 214.467C127.026 213.011 127.026 210.647 125.57 209.192L111.591 195.212C110.135 193.757 107.771 193.757 106.316 195.212L102.617 198.91C101.162 200.366 101.162 202.73 102.617 204.185L116.597 218.165">
</path>
<path     fill="#FFFFFF"  d="M113.329 209.124C111.874 210.579 111.874 212.943 113.329 214.399L117.027 218.097C118.483 219.553 120.847 219.553 122.302 218.097L153.889 186.511C155.344 185.055 155.344 182.691 153.889 181.236L150.19 177.537C148.735 176.082 146.371 176.082 144.915 177.537L113.329 209.124">
</path>
<path d="M54.067 141.145C53.1385 137.445 50.6681 134.321 47.282 132.565L43.874 130.797C43.5427 130.625 43.3348 130.283 43.3348 129.909C43.3348 129.536 43.5427 129.194 43.874 129.022L47.282 127.255C50.6678 125.498 53.1381 122.374 54.067 118.675L55.019 114.884C55.272 113.876 56.705 113.876 56.958 114.884L57.91 118.675C58.8388 122.374 61.3091 125.498 64.695 127.255L68.103 129.022C68.4343 129.194 68.6422 129.536 68.6422 129.909C68.6422 130.283 68.4343 130.625 68.103 130.797L64.695 132.565C61.3089 134.321 58.8384 137.445 57.91 141.145L56.958 144.936C56.705 145.944 55.272 145.944 55.019 144.936L54.067 141.145Z" stroke="rgba(0, 0, 0, 1.00)" stroke-width="2" stroke-linejoin="round"     fill="#FFFFFF" >
</path>
<path d="M233.865 107.074C230.512 108.853 228.077 111.978 227.173 115.664L225.923 120.758C225.674 121.773 224.23 121.773 223.981 120.758L222.731 115.664C221.827 111.978 219.392 108.853 216.04 107.074L211.753 104.799C211.426 104.625 211.222 104.286 211.222 103.916C211.222 103.546 211.426 103.207 211.753 103.033L216.04 100.758C219.393 98.9785 221.827 95.8532 222.731 92.167L223.981 87.074C224.23 86.058 225.674 86.058 225.923 87.074L227.173 92.167C228.077 95.8535 230.512 98.979 233.865 100.758L238.151 103.033C238.478 103.207 238.682 103.546 238.682 103.916C238.682 104.286 238.478 104.625 238.151 104.799L233.865 107.074Z" stroke="rgba(0, 0, 0, 1.00)" stroke-width="2" stroke-linejoin="round"     fill="#FF7043" >
</path>
<path d="M191.494 150.774C191.183 150.595 190.991 150.264 190.991 149.905C190.991 149.546 191.183 149.215 191.494 149.037L192.574 148.42C195.815 146.569 198.137 143.397 198.964 139.766C199.2 138.73 200.714 138.73 200.95 139.766C201.777 143.397 204.099 146.569 207.34 148.42L208.42 149.037C208.731 149.215 208.923 149.546 208.923 149.905C208.923 150.264 208.731 150.595 208.42 150.774L207.34 151.391C204.099 153.242 201.777 156.414 200.95 160.045C200.714 161.081 199.2 161.081 198.964 160.045C198.137 156.414 195.815 153.242 192.574 151.391L191.494 150.774Z" stroke="rgba(0, 0, 0, 1.00)" stroke-width="2" stroke-linejoin="round"     fill="#FFFFFF" >
</path>
<path d="M40.992 168.901C40.992 172.766 37.8589 175.899 33.994 175.899C30.1291 175.899 26.996 172.766 26.996 168.901C26.996 165.036 30.1291 161.903 33.994 161.903C37.8589 161.903 40.992 165.036 40.992 168.901Z" stroke="rgba(0, 0, 0, 1.00)" stroke-width="2" stroke-linejoin="round"     fill="#FDEB5A" >
</path>
<path d="M204.955 112.914C204.955 115.675 202.717 117.913 199.956 117.913C197.195 117.913 194.957 115.675 194.957 112.914C194.957 110.153 197.195 107.915 199.956 107.915C202.717 107.915 204.955 110.153 204.955 112.914Z" stroke="rgba(0, 0, 0, 1.00)" stroke-width="2" stroke-linejoin="round"     fill="#0CE5DE" >
</path>
<path d="M6.998 74.9219C6.998 76.5782 5.6553 77.9209 3.999 77.9209C2.3427 77.9209 1 76.5782 1 74.9219C1 73.2655 2.3427 71.9229 3.999 71.9229C5.6553 71.9229 6.998 73.2655 6.998 74.9219Z" stroke="rgba(0, 0, 0, 1.00)" stroke-width="2" stroke-linejoin="round"     fill="#FF7043" >
</path>
<path d="M35.5247 104.811Q37.1927 108.254 38.0315 111.189Q38.0585 111.283 38.1036 111.371Q38.1486 111.459 38.2098 111.536Q38.2711 111.613 38.3462 111.677Q38.4213 111.74 38.5074 111.788Q38.5935 111.836 38.6873 111.866Q38.7811 111.896 38.8789 111.907Q38.9768 111.919 39.0749 111.911Q39.1731 111.902 39.2678 111.875Q39.3625 111.848 39.4501 111.803Q39.5377 111.758 39.6148 111.697Q39.6919 111.636 39.7557 111.561Q39.8194 111.486 39.8672 111.399Q39.915 111.313 39.9451 111.22Q39.9752 111.126 39.9865 111.028Q39.9977 110.93 39.9896 110.832Q39.9816 110.734 39.9545 110.639Q39.0681 107.538 37.3245 103.939Q35.2333 99.6225 32.4528 95.8037Q29.1358 91.248 25.1853 87.9083Q20.5861 84.0202 15.3604 81.9879Q15.2686 81.9522 15.1716 81.9351Q15.0747 81.918 14.9762 81.9202Q14.8777 81.9223 14.7816 81.9436Q14.6854 81.9649 14.5953 82.0046Q14.5051 82.0443 14.4244 82.1008Q14.3437 82.1572 14.2756 82.2284Q14.2075 82.2995 14.1546 82.3826Q14.1017 82.4657 14.066 82.5575Q13.9939 82.7429 13.9982 82.9417Q14.0026 83.1406 14.0827 83.3227Q14.1628 83.5047 14.3065 83.6423Q14.4501 83.7798 14.6355 83.8519Q19.55 85.7632 23.8941 89.4356Q27.6607 92.6199 30.8359 96.9809Q33.5113 100.655 35.5247 104.811ZM227.245 145.541Q222.901 149.479 219.223 153.408Q219.087 153.553 219.017 153.739Q218.947 153.925 218.954 154.124Q218.96 154.323 219.042 154.504Q219.124 154.685 219.27 154.821Q219.341 154.888 219.425 154.94Q219.509 154.992 219.601 155.027Q219.693 155.062 219.79 155.078Q219.887 155.094 219.986 155.09Q220.084 155.087 220.18 155.065Q220.276 155.042 220.366 155.002Q220.456 154.961 220.536 154.904Q220.616 154.846 220.683 154.774Q224.305 150.906 228.588 147.022Q233.734 142.356 238.349 139.059Q240.042 137.849 241.602 136.87Q242.078 137.608 242.932 138.105Q243.782 138.599 244.971 138.829Q247.046 139.23 249.751 138.814Q250.98 138.626 252.153 138.287Q253.336 137.946 254.316 137.494Q256.653 136.417 257.228 135.018Q257.422 134.544 257.402 134.059Q257.381 133.553 257.129 133.085Q256.689 132.267 255.558 131.625Q252.415 129.838 247.141 131.796Q245.355 132.458 243.335 133.543Q243.496 133.124 243.745 132.657Q245.167 129.991 249.192 126.21Q253.805 121.876 261.595 116.325Q261.675 116.268 261.743 116.197Q261.81 116.125 261.863 116.041Q261.915 115.958 261.95 115.866Q261.985 115.774 262.001 115.677Q262.017 115.579 262.015 115.481Q262.012 115.383 261.989 115.287Q261.967 115.191 261.927 115.101Q261.887 115.011 261.829 114.931Q261.772 114.851 261.701 114.783Q261.629 114.715 261.545 114.663Q261.462 114.611 261.37 114.576Q261.278 114.541 261.181 114.525Q261.083 114.508 260.985 114.511Q260.887 114.514 260.791 114.537Q260.695 114.559 260.605 114.599Q260.515 114.639 260.435 114.697Q252.534 120.326 247.823 124.752Q243.557 128.759 241.981 131.716Q241.048 133.464 241.038 134.866Q239.198 135.994 237.186 137.432Q232.477 140.796 227.245 145.541ZM243.319 135.838Q243.536 136.143 243.938 136.376Q244.494 136.7 245.35 136.865Q247.085 137.201 249.448 136.838Q250.549 136.668 251.598 136.366Q252.636 136.066 253.479 135.678Q254.308 135.296 254.824 134.885Q255.263 134.536 255.378 134.258Q255.523 133.905 254.57 133.363Q252.237 132.037 247.836 133.671Q245.76 134.441 243.319 135.838Z" fill-rule="evenodd"  fill="#000000" >
</path>
<defs>
<linearGradient id="linear_fill_sUE4zRGaBCM_f-kbOFZRm" x1="18339.208068847656" y1="32927.77783203125" x2="64856.327209472656" y2="26801.84814453125" gradientUnits="userSpaceOnUse">
<stop offset="0" stop-color="#FFFFFF"  />
<stop offset="0.651" stop-color="#FDEB5A"  />
</linearGradient>
<mask id="mask-zg3GcH6Y4lUrbxu0TJmu7" style="mask-type:alpha" maskUnits="userSpaceOnUse">
<path fill="white" d="M57.003 186.312L57.003 181.742C57.003 163.077 72.137 147.942 90.803 147.942L167.033 147.942C185.698 147.942 200.833 163.076 200.833 181.742L200.833 196.632C188.034 204.251 173.292 209.472 159.023 213.372C132.089 220.734 105.263 213.026 80.263 199.292C78.492 198.319 76.688 197.34 74.873 196.352C68.985 193.149 62.921 189.843 57.003 186.312Z">
</path>
</mask>
<mask id="mask-xDttHWTGJpiwGCwHKdYSS" style="mask-type:alpha" maskUnits="userSpaceOnUse">
<path fill="white" d="M159.763 119.761C156.428 129.488 148.598 137.126 138.703 140.641L138.793 149.491C138.819 151.962 138.118 154.203 136.783 156.131C134.745 159.501 130.948 161.697 126.643 161.741C122.418 161.785 118.64 159.667 116.373 156.341C115.158 154.44 114.338 152.222 114.313 149.751L114.223 140.751C102.841 136.873 94.179 127.727 91.283 116.611C88.5936 117.906 85.4266 117.707 82.923 116.081C78.963 113.52 77.811 108.262 80.353 104.331C82.668 100.752 87.253 99.5094 91.043 101.251C94.674 85.2254 110.168 73.8224 127.953 75.0314C145.217 76.2044 158.89 88.8734 161.173 104.601C163.712 103.65 166.549 103.955 168.823 105.431C172.783 107.992 173.935 113.251 171.393 117.181C168.882 121.063 163.705 122.202 159.763 119.761Z">
</path>
</mask>
</defs>
</svg>
