<svg xmlns="http://www.w3.org/2000/svg" xmlns:xlink="http://www.w3.org/1999/xlink" width="618.2478637695312" height="746.12890625" viewBox="0 0 618.2478637695312 746.12890625" fill="none">
<path d="M144.141 143.739C144.141 143.739 45.0886 71.3237 72.8235 46.2302C100.558 21.1368 195.649 95.9703 208.856 143.739C222.063 191.508 144.141 143.739 144.141 143.739L144.141 143.739Z"   fill="url(#linear_fill__ZfJxwbn1uJch5CgLOqmV)" >
</path>
<path d="M204.242 104.601C204.242 104.601 165.272 96.2064 136.082 121.386C118.462 136.585 98.7043 164.758 97.156 218.948C93.092 361.177 175.354 243.314 180.433 235.187C185.513 227.06 204.242 104.601 204.242 104.601L204.242 104.601Z"   fill="#B43C01" >
</path>
<g opacity="0.8">
<path d="M128.886 194.151C143.74 162.32 155.387 139.148 166.876 125.111C176.373 113.508 184.837 106.974 191.318 103.296C196.281 103.432 200.132 103.918 202.293 104.257C191.818 131.039 145.297 243.735 98.9002 258.069C97.3546 248.058 96.6921 235.203 97.1564 218.952C97.3557 211.979 97.8562 205.438 98.6148 199.299C100.411 199.371 102.347 199.513 104.344 199.659C114.223 200.384 125.588 201.218 128.886 194.151Z" fill-rule="evenodd"  fill="#8E2B00" >
</path>
</g>
<path d="M252.359 91.7383L238.024 106.073L269.006 125.494L281.953 111.16L252.359 91.7383L252.359 91.7383Z"   fill="#FFDAD1" >
</path>
<path d="M248.332 107.76C247.407 102.674 203.016 74.0045 164.173 140.592C125.33 207.179 160.936 277.928 160.936 277.928L324.629 219.664C324.629 219.664 305.208 137.817 278.388 126.719C251.569 115.621 249.257 112.847 248.332 107.76L248.332 107.76Z"   fill="url(#linear_fill_lAKJlh5cOekMevYxzHSDE)" >
</path>
<path d="M197.485 239.772C197.485 239.772 154.451 245.107 184.685 224.832C213.997 205.176 228.017 104.681 228.846 98.5634C233.372 99.0805 237.364 100.257 240.641 101.655C241.344 112.957 238.531 125.95 235.185 140.172C224.193 186.89 197.485 239.772 197.485 239.772Z" fill-rule="evenodd"  fill="#A13806" >
</path>
<g opacity="0.7">
<path d="M160.936 277.929C160.936 277.929 125.323 207.186 164.166 140.599C186.287 102.678 210.208 95.6515 226.875 97.5693C211.367 99.3364 192.17 109.735 174.166 140.599C140.091 199.014 163.315 260.626 169.53 274.871L160.936 277.929Z" fill-rule="evenodd"  fill="#FFA82A" >
</path>
</g>
<path d="M282.036 43.0352L295.374 85.1146L262.081 104.998L245.434 79.5656L237.573 45.8096L282.036 43.0352L282.036 43.0352Z"   fill="#FFDAD1" >
</path>
<path d="M290.126 88.254L280.456 46.0447L243.696 60.8247L238.322 49.0149L237.576 45.8091L282.036 43.0391L295.376 85.1191L290.126 88.254Z" fill-rule="evenodd"  fill="#FCC2AC" >
</path>
<path d="M232.411 53.4453C232.411 53.4453 224.088 59.9191 223.626 68.2425C223.163 76.5659 228.712 76.1035 232.411 77.4907C236.111 78.8779 241.659 79.8027 242.122 83.9644C242.584 88.1262 232.411 53.4453 232.411 53.4453L232.411 53.4453Z" fill-rule="evenodd"  fill="#FFD9C7" >
</path>
<path d="M229.381 76.6316C226.293 75.7855 223.281 74.4732 223.626 68.2492C224.089 59.9258 232.406 53.4492 232.406 53.4492C232.406 53.4492 232.931 55.2372 233.736 57.9524C231.26 60.5835 227.915 65.057 227.626 70.2492C227.445 73.5147 228.188 75.4282 229.381 76.6316ZM240.283 80.8037C240.525 80.9984 240.75 81.206 240.953 81.4284C241.747 83.7822 242.225 84.9463 242.116 83.9692C242.002 82.9441 241.58 82.1157 240.953 81.4284C240.905 81.2874 240.856 81.142 240.806 80.9927C240.633 80.9282 240.458 80.8653 240.283 80.8037Z" fill-rule="evenodd"  fill="#FFC180" >
</path>
<path d="M263.924 98.5239L250.976 81.8771L240.803 50.4332L289.819 42.5722L289.819 26.8502L267.16 26.8502C267.16 26.8502 281.495 14.3651 276.871 12.0531C272.247 9.74106 230.094 22.4039 227.393 37.4857L227.393 37.4857C224.692 52.5675 240.615 83.3275 250.976 101.946C261.337 120.565 263.923 115.633 276.871 114.246C289.819 112.859 307.39 106.385 307.39 106.385C307.39 106.385 311.551 80.9523 296.754 81.8771C281.957 82.802 263.924 98.5239 263.924 98.5239Z"   fill="url(#linear_fill_gpaziU6LLj4svvST4eBI2)" >
</path>
<path d="M388.048 41.8398L388.033 41.834L390.542 35.2988L420.125 46.7197L417.942 53.2031C417.937 53.2184 417.932 53.2336 417.927 53.2487L417.908 53.3028L417.907 53.3021C416.885 55.8569 408.833 54.9495 400.86 51.8889C393.024 48.8805 387.333 44.4418 388.048 41.8398Z" fill-rule="evenodd"  fill="url(#linear_fill_3mU0XZctEWjgX78JnqqOA)" >
</path>
<ellipse cx="407.976806640625" cy="36" transform="rotate(21.00000058321184 391.976806640625 31)" rx="16" ry="5"   fill="#FFE9AA" >
</ellipse>
<rect  x="39.036376953125" y="206.12890625" width="550" height="500" rx="80"    fill="url(#linear_fill_5rXlxaNSJMTXzPMW6OPx3_0)" >
</rect>
<rect  x="39.036376953125" y="206.12890625" width="550" height="377" rx="80"    fill="url(#linear_fill_rJprTcGJyPqA2sXB55-6j_0)" >
</rect>
<path d="M426.048 39.8398L426.033 39.834L428.542 33.2988L458.125 44.7197L455.942 51.2031C455.937 51.2184 455.932 51.2336 455.927 51.2487L455.908 51.3028L455.907 51.3021C454.885 53.8569 446.833 52.9495 438.86 49.8889C431.024 46.8805 425.333 42.4418 426.048 39.8398Z" fill-rule="evenodd"  fill="url(#linear_fill_f6w6toyaIR6jCtEr6plKx)" >
</path>
<ellipse cx="445.976806640625" cy="34" transform="rotate(21.00000058321184 429.976806640625 29)" rx="16" ry="5"   fill="#FFE9AA" >
</ellipse>
<rect  x="39.036376953125" y="206.12890625" width="550" height="357" rx="80"    fill="url(#linear_fill_vvzjlOCJxrz9vWPmJjlWv_0)" >
</rect>
<path d="M589.037 360.937C567.588 340.271 540.702 342.171 357.195 430.254C154.45 527.572 39.5308 418.536 39.0369 418.066L39.0369 286.129C39.0369 241.946 74.8541 206.129 119.037 206.129L509.037 206.129C553.22 206.129 589.037 241.946 589.037 286.129L589.037 360.937Z" fill-rule="evenodd"  fill="url(#linear_fill_MabxqQqQaNXF0MGq3wdQ-)" >
</path>
<path d="M448.689 128.23C448.689 128.23 534.652 54.7709 553.407 78.9969C572.163 103.223 469.008 175.119 459.63 170.43C450.252 165.741 448.689 128.23 448.689 128.23L448.689 128.23Z"   fill="url(#linear_fill_mBRJSmpjFATEOV9ehbK9G)" >
</path>
<path d="M373.035 368.394C373.035 368.394 539.645 324.71 591.457 222.102C643.27 119.495 624.983 330.805 491.898 368.394C358.813 405.983 373.035 368.394 373.035 368.394L373.035 368.394Z"   fill="url(#linear_fill_fgGE41ns4b8r-OHpo85T-)" >
</path>
<g filter="url(#filter_QLlSysKLQPJADek-toUFU)">
<path d="M382.829 95.0172C382.829 95.0172 281.135 103.716 294.342 204.089C307.549 304.462 574.331 258.238 472.637 123.526C442.739 83.921 428.652 101.877 415.038 95.0172C382.898 78.8198 382.829 95.0172 382.829 95.0172L382.829 95.0172Z"   fill="#FFF1C2" >
</path>
</g>
<g opacity="0.51">
<path d="M375.948 258.145C450.133 260.717 538.379 210.612 472.639 123.528C451.673 95.7561 438.482 96.2875 427.777 96.7187C426.909 96.7536 426.058 96.7879 425.22 96.8064C434.453 97.7434 445.838 102.598 461.639 123.528C524.154 206.34 447.421 255.712 375.948 258.145ZM420.363 96.611C418.558 96.3751 416.795 95.9031 415.039 95.0184C399.882 87.38 391.857 86.9458 387.609 88.6198C391.846 89.6041 397.221 91.5824 404.039 95.0184C408.106 97.068 412.216 96.9024 416.777 96.7187C417.941 96.6718 419.134 96.6238 420.363 96.611Z" fill-rule="evenodd"  fill="#F8B97B" >
</path>
</g>
<path d="M381.106 83.9024C381.106 83.9024 347.442 74.8853 354.655 56.8512C357.678 49.2949 367.361 55.5667 373.771 53.366C382.035 50.5246 386.691 37.6414 397.168 44.9759C415.202 57.5998 423.786 58.6546 431 49.0364C438.214 39.4182 477.287 44.8285 473.681 67.0706C470.074 89.3126 459.253 97.1274 441.821 94.7229C424.388 92.3183 381.106 83.9024 381.106 83.9024L381.106 83.9024Z"   fill="url(#linear_fill_h2KcD1wTohFev_QwkP1Bw)" >
</path>
<path d="M372.757 96.709L378.227 83.4238L449.342 90.4572L449.342 100.616L372.757 96.709L372.757 96.709Z"   fill="url(#linear_fill_W4y3pH25uuJJjXQHGqr7k)" >
</path>
<path d="M415.092 143.144C413.731 140.226 410.562 139.468 408.025 141.445L386.032 158.6L374.113 133.376C372.741 130.468 369.575 129.721 367.04 131.716C364.514 133.706 363.572 137.681 364.946 140.585L373.3 158.261L366.749 156.687L366.736 156.684C363.981 156.028 361.077 158.292 360.248 161.749C359.419 165.212 360.985 168.56 363.744 169.225L377.466 172.522L375.369 181.267L361.683 177.971L361.674 177.971C358.915 177.312 356.012 179.582 355.186 183.041C354.357 186.504 355.922 189.847 358.678 190.509L372.361 193.803L369.664 205.043C368.832 208.503 370.394 211.85 373.156 212.517L373.166 212.516C375.924 213.175 378.819 210.905 379.651 207.45L382.351 196.207L396.047 199.503L396.056 199.503C398.808 200.157 401.715 197.89 402.544 194.433C403.372 190.97 401.807 187.627 399.045 186.961L385.362 183.667L387.46 174.928L401.112 178.212L401.121 178.213C403.876 178.869 406.783 176.601 407.605 173.14C408.434 169.677 406.872 166.337 404.113 165.673L397.49 164.08L412.971 152.012C415.51 150.031 416.458 146.06 415.092 143.144L415.092 143.144Z"   fill="#FFA22F" >
</path>
<path d="M204.283 304.156C204.283 304.156 15.4246 124.542 0.896729 186.615C-13.6311 248.687 152.776 329.249 180.51 321.325C208.245 313.401 204.283 304.156 204.283 304.156L204.283 304.156Z"   fill="url(#linear_fill_w9czZes-AY3UpI5wnJqnz)" >
</path>
<g filter="url(#filter_TaqrJ_odJ2QzlbaCz0uts)">
<path d="M441.758 159.827C445.421 157.352 444.716 157.398 447.015 156.728C449.314 156.057 448.448 157.288 447.945 160.175C444.814 178.131 426.239 251.627 333.775 249.588C228.222 247.259 221.964 185.266 221.964 185.266L252.02 170.238L252.02 170.238C252.02 170.238 283.88 214.722 342.791 211.716C391.156 209.249 413.996 177.608 420.764 166.12C422.069 163.906 422.85 161.74 424.275 161.223C425.699 160.706 425.64 165.568 427.965 166.631C430.29 167.694 432.361 166.631 432.361 166.631C432.361 166.631 438.095 162.303 441.758 159.827Z"   fill="url(#linear_fill_TaqrJ_odJ2QzlbaCz0uts)" >
</path>
</g>
<g opacity="0.51">
<path d="M223.405 185.55C228.28 201.367 249.007 241.719 333.777 243.589C420.723 245.507 442.338 180.633 447.256 157.702L448.597 156.809C448.597 156.809 439.33 252.917 333.777 250.589C228.224 248.26 221.967 186.269 221.967 186.269L223.405 185.55Z" fill-rule="evenodd"  fill="#FF883A" >
</path>
</g>
<path d="M218.889 127.795L266.054 167.562L229.987 217.04L188.101 178.229L218.889 127.795L218.889 127.795Z"   fill="url(#linear_fill_ol2DC1_b0IeqafeF6V-C1)" >
</path>
<path d="M338.048 25.8398L338.033 25.834L340.542 19.2988L370.125 30.7197L367.942 37.2031C367.937 37.2184 367.932 37.2336 367.927 37.2487L367.908 37.3028L367.907 37.3021C366.885 39.8569 358.833 38.9495 350.86 35.8889C343.024 32.8805 337.333 28.4418 338.048 25.8398Z" fill-rule="evenodd"  fill="url(#linear_fill_SKcOQWytcWTfmqnzOJk3N)" >
</path>
<ellipse cx="357.976806640625" cy="20" transform="rotate(21.00000058321184 341.976806640625 15)" rx="16" ry="5"   fill="#FFE9AA" >
</ellipse>
<path d="M9.04814 78.8398L9.03323 78.834L11.542 72.2988L41.125 83.7197L38.942 90.2031C38.9371 90.2184 38.932 90.2336 38.9267 90.2487L38.9084 90.3028L38.9065 90.3021C37.8847 92.8569 29.8327 91.9495 21.8603 88.8889C14.0235 85.8805 8.33312 81.4418 9.04814 78.8398Z" fill-rule="evenodd"  fill="url(#linear_fill_C7Bqg47wIEExfWrVyYxei)" >
</path>
<ellipse cx="28.976806640625" cy="73" transform="rotate(21.00000058321184 12.976806640625 68)" rx="16" ry="5"   fill="#FFE9AA" >
</ellipse>
<path d="M376.048 10.8398L376.033 10.834L378.542 4.29883L408.125 15.7197L405.942 22.2031C405.937 22.2184 405.932 22.2336 405.927 22.2487L405.908 22.3028L405.907 22.3021C404.885 24.8569 396.833 23.9495 388.86 20.8889C381.024 17.8805 375.333 13.4418 376.048 10.8398Z" fill-rule="evenodd"  fill="url(#linear_fill_veD7vQpgW-kZmQF0HJ6jQ)" >
</path>
<ellipse cx="395.976806640625" cy="5" transform="rotate(21.00000058321184 379.976806640625 0)" rx="16" ry="5"   fill="#FFE9AA" >
</ellipse>
<g >
<path     fill="#FFFFFF"  d="M78.4764 395.364L69.8414 395.364L69.8414 388.544L78.4764 388.544L78.4764 382.604L85.3514 382.604L85.3514 388.544L89.4764 388.544L89.4764 394.759Q95.7464 390.029 98.0564 382.879L111.476 382.879Q113.841 390.139 120.111 394.814L120.111 403.064Q117.251 401.414 114.666 399.214L114.666 405.099L94.8664 405.099L94.8664 399.214Q92.2814 401.414 89.4214 403.064L89.4214 395.364L85.3514 395.364L85.3514 401.634L89.2564 404.769L89.2564 413.074L85.3514 409.939L85.3514 432.379L78.4764 432.379L78.4764 395.364ZM68.3014 429.519Q69.6764 422.589 70.1989 414.889Q70.7214 407.189 70.7214 397.619L76.3864 397.619Q76.3864 407.849 76.0564 415.109Q75.7264 422.369 74.3514 429.519L68.3014 429.519ZM90.0264 425.339L109.056 425.339L111.091 408.289L117.251 408.289L115.216 425.339L119.231 425.339L119.231 431.939L90.0264 431.939L90.0264 425.339ZM97.4514 408.289L99.1014 422.039L92.9414 422.039L91.2914 408.289L97.4514 408.289ZM113.896 398.499Q109.936 394.869 107.296 389.644L102.236 389.644Q99.5964 394.869 95.6364 398.499L113.896 398.499ZM106.471 408.289L108.121 422.039L101.961 422.039L100.311 408.289L106.471 408.289ZM158.886 383.704L158.886 417.474L154.651 417.474Q159.491 422.644 161.141 432.379L154.871 432.379Q153.936 425.449 150.086 421.434Q148.491 425.669 145.219 428.666Q141.946 431.664 137.271 432.929L137.271 425.669Q140.021 424.899 142.056 423.001Q144.091 421.104 145.191 418.519Q146.291 415.934 146.291 413.184L146.291 393.714L151.516 393.714L151.516 413.184Q151.516 414.229 151.461 414.724L153.166 416.044L153.166 390.634L144.641 390.634L144.641 418.024L138.921 418.024L138.976 383.704L158.886 383.704ZM132.321 432.379Q136.226 422.644 137.931 408.949L130.561 408.949Q129.076 420.554 124.291 432.379L132.321 432.379ZM137.931 406.419L137.931 399.049L124.786 395.804L124.786 403.284L137.931 406.419ZM137.821 393.439L137.821 385.959L125.886 382.879L125.886 390.359L137.821 393.439ZM160.756 385.629L165.761 385.629L165.761 421.214L160.756 421.214L160.756 385.629ZM162.846 425.449L167.576 425.449L167.576 382.879L173.461 382.879L173.461 432.379L162.846 432.379L162.846 425.449ZM214.381 425.779L221.751 425.779L221.751 382.879L228.626 382.879L228.626 432.379L214.381 432.379L214.381 425.779ZM179.401 424.844L190.841 424.844L190.841 418.629L181.381 418.629L181.381 411.699L190.841 411.699L190.841 406.419L180.116 406.419L180.116 399.764L182.921 399.764L187.541 390.634L181.106 390.634L181.106 383.814L208.441 383.814L208.441 390.634L195.076 390.634L190.401 399.764L199.806 399.764L197.496 393.714L204.536 393.714L209.486 406.419L197.991 406.419L197.991 411.699L207.616 411.699L207.616 418.629L197.991 418.629L197.991 424.844L209.541 424.844L209.541 431.884L179.401 431.884L179.401 424.844ZM211.741 385.904L218.176 385.904L218.176 420.829L211.741 420.829L211.741 385.904ZM247.271 414.889L254.201 414.889L254.201 426.109L266.301 426.109L266.301 420.389L273.121 420.389L273.121 432.214L247.271 432.214L247.271 414.889ZM234.236 423.909Q238.856 421.269 239.461 415.439L245.786 415.439Q245.511 421.489 242.596 425.504Q239.681 429.519 234.236 431.774L234.236 423.909ZM234.236 395.749Q240.396 391.019 242.981 382.879L250.021 382.879Q248.866 387.609 246.886 391.349L246.886 413.514L239.736 413.514L239.736 400.479Q237.151 402.734 234.236 404.219L234.236 395.749ZM249.746 412.524Q253.101 404.769 253.651 396.794L260.251 396.794Q259.701 404.604 256.896 412.524L249.746 412.524ZM249.746 395.529Q253.046 389.149 254.586 382.879L284.231 382.879Q283.461 389.149 280.986 395.529L273.066 395.529Q274.331 392.669 275.211 389.864L260.141 389.864Q259.206 392.669 257.831 395.529L249.746 395.529ZM263.771 414.174L265.366 423.634L258.491 423.634L256.896 414.174L263.771 414.174ZM264.101 392.999L271.031 392.999L271.031 413.514L264.101 413.514L264.101 392.999ZM279.611 415.439Q280.216 421.269 284.836 423.909L284.836 431.774Q279.391 429.519 276.476 425.504Q273.561 421.489 273.286 415.439L279.611 415.439ZM280.766 396.794Q283.461 404.439 284.176 412.524L277.741 412.524Q277.026 404.549 274.001 396.794L280.766 396.794ZM334.391 383.319L334.391 404.384L294.681 404.384L294.681 383.319L334.391 383.319ZM289.401 432.379Q292.811 428.144 294.269 423.661Q295.726 419.179 295.891 413.899L302.876 413.899Q302.711 418.629 302.051 421.764Q303.921 423.414 306.094 424.266Q308.266 425.119 311.126 425.394L311.126 412.524L290.996 412.524L290.996 406.419L338.626 406.419L338.626 412.524L318.276 412.524L318.276 415.549L334.776 415.549L334.776 421.709L318.276 421.709L318.276 425.504L339.286 425.504L339.286 431.994L314.151 431.994Q309.036 431.994 305.874 431.114Q302.711 430.234 300.181 428.034Q299.356 430.069 297.926 432.379L289.401 432.379ZM327.296 398.664L327.296 396.299L301.776 396.299L301.776 398.664L327.296 398.664ZM327.296 391.459L327.296 389.039L301.776 389.039L301.776 391.459L327.296 391.459ZM75.5614 479.069L69.8414 479.069L69.8414 467.079L90.9064 467.079L90.9064 463.779L98.1664 463.779L98.1664 467.079L119.231 467.079L119.231 479.069L112.521 479.069L112.521 493.699L82.7114 493.699L82.7114 496.669L117.526 496.669L117.526 513.939L75.5614 513.939L75.5614 479.069ZM112.081 476.869L112.081 473.789L76.9914 473.789L76.9914 476.869L112.081 476.869ZM110.376 507.339L110.376 503.269L82.7114 503.269L82.7114 507.339L110.376 507.339ZM105.371 487.154L105.371 483.304L82.7114 483.304L82.7114 487.154L105.371 487.154ZM155.531 507.229L163.396 507.229L163.396 490.839L142.166 490.839Q141.616 499.529 137.244 505.716Q132.871 511.904 124.126 514.654L124.126 506.459Q129.791 504.204 132.459 499.281Q135.126 494.359 135.126 487.649L135.126 476.099L124.786 476.099L124.786 469.059L145.906 469.059L145.906 463.779L153.166 463.779L153.166 469.059L174.286 469.059L174.286 476.099L142.276 476.099L142.276 483.799L170.491 483.799L170.491 514.379L155.531 514.379L155.531 507.229ZM198.266 483.854Q204.646 482.864 209.211 480.994L206.351 475.384Q203.051 477.749 198.706 478.794L198.706 472.139Q203.986 469.939 206.846 465.099L229.561 465.099Q227.251 476.374 219.881 482.616Q212.511 488.859 198.266 490.454L198.266 483.854ZM182.206 489.629L188.696 489.629L186.386 511.299L179.896 511.299L182.206 489.629ZM186.386 467.959L188.696 487.209L182.206 487.209L179.896 467.959L186.386 467.959ZM190.236 464.879L197.331 464.879L197.331 514.379L190.236 514.379L190.236 464.879ZM198.266 491.059L219.551 491.059L219.551 485.449L226.701 485.449L226.701 491.059L230.331 491.059L230.331 497.879L226.701 497.879L226.701 514.379L215.426 514.379L215.426 507.449L219.551 507.449L219.551 497.879L198.266 497.879L198.266 491.059ZM207.396 499.804L212.291 512.234L204.536 512.234L199.641 499.804L207.396 499.804ZM212.181 473.019L214.656 477.914Q217.956 475.384 220.101 471.534L210.366 471.534Q209.981 472.029 209.101 473.019L212.181 473.019ZM235.116 465.704L254.586 465.704L254.586 498.374L249.746 498.374L249.746 472.634L240.671 472.634L240.671 498.374L235.116 498.374L235.116 465.704ZM234.346 507.669Q238.581 506.844 240.479 503.544Q242.376 500.244 242.376 495.184L242.376 476.759L247.876 476.759L247.876 495.184Q247.876 496.339 247.766 498.319Q250.736 501.124 252.826 505.276Q254.916 509.429 255.961 514.379L249.416 514.379Q248.426 508.549 246.116 505.359Q242.926 512.949 234.346 514.929L234.346 507.669ZM256.181 468.949L260.416 468.949L258.876 464.879L265.916 464.879L267.456 468.949L273.286 468.949L274.826 464.879L281.866 464.879L280.326 468.949L284.011 468.949L284.011 490.179L256.181 490.179L256.181 468.949ZM257.061 492.489L283.186 492.489L283.186 513.829L257.061 513.829L257.061 492.489ZM267.841 484.624L267.841 474.504L262.011 474.504L262.011 484.624L267.841 484.624ZM265.861 475.824L267.401 483.304L263.991 483.304L262.451 475.824L265.861 475.824ZM276.256 508.714L276.256 505.524L263.991 505.524L263.991 508.714L276.256 508.714ZM276.256 500.739L276.256 497.604L263.991 497.604L263.991 500.739L276.256 500.739ZM278.181 484.624L278.181 474.504L272.351 474.504L272.351 484.624L278.181 484.624ZM274.331 475.824L277.741 475.824L276.201 483.304L272.791 483.304L274.331 475.824ZM312.886 513.829Q307.826 513.829 304.471 513.251Q301.116 512.674 298.421 511.299Q298.036 512.619 297.871 513.004Q297.596 514.049 297.486 514.379L289.896 514.379Q292.481 507.174 293.691 501.014Q294.901 494.854 295.176 487.704L288.686 487.704L288.686 480.554L302.326 480.554Q302.326 487.649 301.831 493.259Q301.336 498.869 300.126 504.424Q302.601 505.799 305.599 506.376Q308.596 506.954 312.886 506.954L339.836 506.954L339.836 513.829L312.886 513.829ZM298.366 464.879L302.161 476.814L294.736 476.814L290.941 464.879L298.366 464.879ZM303.536 482.204L318.001 482.204L317.946 476.264L304.746 476.264L304.746 469.389L310.191 469.389L308.376 464.439L315.471 464.439L317.286 469.389L325.591 469.389L327.406 464.439L334.501 464.439L332.686 469.389L338.131 469.389L338.131 476.264L324.986 476.264L324.986 482.204L339.341 482.204L339.341 488.969L326.911 488.969Q328.781 492.489 331.641 494.661Q334.501 496.834 339.176 498.484L339.176 505.414Q332.191 503.324 327.956 499.996Q323.721 496.669 321.411 491.719Q319.101 496.669 314.866 499.996Q310.631 503.324 303.646 505.414L303.646 498.484Q308.321 496.834 311.181 494.661Q314.041 492.489 315.911 488.969L303.536 488.969L303.536 482.204ZM344.786 483.964L394.286 483.964L394.286 491.554L344.786 491.554L344.786 483.964ZM399.786 483.139Q411.446 476.539 416.231 464.879L432.841 464.879Q437.626 476.539 449.286 483.139L449.286 490.949Q442.631 488.474 437.214 483.524Q431.796 478.574 428.441 472.139L420.631 472.139Q417.276 478.574 411.859 483.524Q406.441 488.474 399.786 490.949L399.786 483.139ZM420.796 479.729L428.276 479.729L428.276 514.379L420.796 514.379L420.796 479.729ZM460.891 488.419L453.851 484.569L462.871 464.879L470.131 464.879L462.871 480.609L464.906 481.764L468.096 474.724L475.081 474.724L466.226 494.304L473.431 494.304L473.431 501.399L455.006 501.399L460.891 488.419ZM454.786 506.954L473.706 505.139L473.706 512.234L454.786 514.049L454.786 506.954ZM476.511 505.524L486.466 505.524L486.466 475.274L477.336 475.274L477.336 468.014L503.461 468.014L503.461 475.274L494.276 475.274L494.276 505.524L504.231 505.524L504.231 513.279L476.511 513.279L476.511 505.524ZM547.076 494.579L550.871 494.579L550.871 474.064L521.226 474.064Q520.511 476.429 519.576 478.684L544.931 478.684L544.931 499.859L521.501 499.859L521.501 507.394L559.891 507.394L559.891 514.379L514.461 514.379L514.461 483.304L508.741 483.304Q513.471 473.624 516.056 463.779L524.141 463.779Q523.646 465.814 523.261 467.134L557.801 467.134L557.801 501.619L547.076 501.619L547.076 494.579ZM538.111 492.984L538.111 485.559L521.501 485.559L521.501 492.984L538.111 492.984Z">
</path>
<path     fill="#FFE700"  d="M344.786 418.024L365.906 418.024L365.906 413.679L347.371 413.679L347.371 407.189L355.566 407.189L353.091 401.689L345.721 401.689L345.721 395.199L365.906 395.199L365.906 391.899L347.371 391.899L347.371 385.299L365.906 385.299L365.906 382.549L373.166 382.549L373.166 385.299L391.701 385.299L391.701 391.899L373.166 391.899L373.166 395.199L393.351 395.199L393.351 401.689L385.981 401.689L383.506 407.189L391.701 407.189L391.701 413.679L373.166 413.679L373.166 418.024L394.286 418.024L394.286 424.624L373.166 424.624L373.166 432.819L365.906 432.819L365.906 424.624L344.786 424.624L344.786 418.024ZM363.871 407.189L375.201 407.189L377.676 401.689L361.396 401.689L363.871 407.189ZM422.886 431.829Q417.826 431.829 414.471 431.251Q411.116 430.674 408.421 429.299Q408.036 430.619 407.871 431.004Q407.596 432.049 407.486 432.379L399.896 432.379Q402.481 425.174 403.691 419.014Q404.901 412.854 405.176 405.704L398.686 405.704L398.686 398.554L412.326 398.554Q412.326 405.594 411.831 411.204Q411.336 416.814 410.126 422.369Q412.601 423.744 415.599 424.321Q418.596 424.899 422.886 424.899L449.836 424.899L449.836 431.829L422.886 431.829ZM408.366 382.879L412.161 394.814L404.736 394.814L400.941 382.879L408.366 382.879ZM414.251 396.354L449.286 396.354L449.286 403.284L431.796 403.284L425.911 414.064L439.771 414.064L437.626 408.564L444.501 408.564L449.286 420.939L415.681 420.939L415.681 414.064L418.651 414.064L424.481 403.284L414.251 403.284L414.251 396.354ZM417.001 384.199L446.536 384.199L446.536 390.909L417.001 390.909L417.001 384.199ZM489.051 425.174L494.551 425.174L494.551 417.419L483.221 417.419L483.221 432.379L476.181 432.379L476.181 417.419L464.576 417.419Q463.806 425.284 461.551 432.434L453.686 432.434Q457.866 422.039 457.866 409.279L457.811 383.649L501.646 383.649L501.646 432.379L489.051 432.379L489.051 425.174ZM476.181 410.599L476.181 403.944L464.961 403.944L464.961 409.279L464.961 410.599L476.181 410.599ZM476.181 397.124L476.181 390.579L464.961 390.579L464.961 397.124L476.181 397.124ZM494.551 410.599L494.496 403.944L483.221 403.944L483.221 410.599L494.551 410.599ZM494.496 397.124L494.496 390.579L483.221 390.579L483.221 397.124L494.496 397.124ZM508.906 432.379Q511.656 426.329 512.701 420.499Q513.746 414.669 513.746 407.024L513.746 386.619L530.906 386.619L530.906 381.779L538.166 381.779L538.166 386.619L556.811 386.619L556.811 409.829L520.896 409.829Q520.566 422.369 517.046 432.379L508.906 432.379ZM549.496 402.734L549.496 393.714L520.951 393.714L520.951 402.734L549.496 402.734Z">
</path>
</g>
<g filter="url(#filter_NZldw51vrDziRzf6uxUMt)">
<path d="M408.847 282.498L256.216 282.498C249.037 282.498 243.216 288.318 243.216 295.498L243.216 332.763C243.216 339.943 249.037 345.763 256.216 345.763L303.688 345.763C303.786 350.616 304.325 357.961 306.76 355.632C308.881 353.603 314.451 349.08 318.598 345.763L408.847 345.763C416.027 345.763 421.847 339.943 421.847 332.763L421.847 295.498C421.847 288.318 416.027 282.498 408.847 282.498Z" stroke="rgba(255, 255, 255, 1)" stroke-width="4"    fill-rule="evenodd"  fill="#00F87E" >
</path>
</g>
<g >
<path     fill="#006F3A"  d="M267.428 309.347L267.428 302.571L271.124 302.571L271.124 304.195L282.492 304.195L282.492 307.611L271.124 307.611L271.124 309.347L281.484 309.347L281.484 320.855L260.596 320.855L260.596 309.347L267.428 309.347ZM260.288 321.947L264.292 321.947L262.052 328.331L258.048 328.331L260.288 321.947ZM277.844 317.523L277.844 312.875L264.236 312.875L264.236 317.523L277.844 317.523ZM266.504 321.947L270.228 321.947L269.22 328.331L265.496 328.331L266.504 321.947ZM275.576 321.947L276.584 328.331L272.86 328.331L271.852 321.947L275.576 321.947ZM281.792 321.947L284.032 328.331L280.028 328.331L277.788 321.947L281.792 321.947ZM287.28 317.943L291.032 317.943L291.032 324.411L297.248 324.411L297.248 316.319L285.88 316.319L285.88 312.763L297.248 312.763L297.248 308.479L287.28 308.479L287.28 304.923L297.248 304.923L297.248 302.711L300.832 302.711L300.832 304.923L310.8 304.923L310.8 308.479L300.832 308.479L300.832 312.763L312.2 312.763L312.2 316.319L300.832 316.319L300.832 324.411L307.048 324.411L307.048 317.943L310.8 317.943L310.8 327.995L287.28 327.995L287.28 317.943ZM326.256 308.423L330.54 308.423L330.904 306.855L325.668 306.855L325.668 303.439L339.864 303.439L339.864 306.855L334.544 306.855L334.18 308.423L339.388 308.423L339.388 321.611L335.972 321.611L335.972 311.783L329.644 311.783L329.644 321.611L326.256 321.611L326.256 308.423ZM313.88 309.011Q315.98 306.743 316.82 303.131L322.42 303.131Q323.26 306.743 325.36 309.011L325.36 313.855Q322.028 311.279 320.432 306.715L318.808 306.715Q317.212 311.279 313.88 313.855L313.88 309.011ZM314.804 315.227L325.276 315.227L322.168 323.739Q323.54 324.383 324.464 324.971L324.464 328.611Q319.872 326.007 315.168 324.971L315.168 321.415Q316.988 321.835 318.976 322.479L320.32 318.755L314.804 318.755L314.804 315.227ZM321.048 309.403L321.692 314.135L318.388 314.135L317.688 309.403L321.048 309.403ZM325.864 324.803Q328.356 324.271 329.756 322.703Q331.156 321.135 331.156 318.867L331.156 312.987L334.404 312.987L334.404 319.007Q334.404 319.931 334.292 320.603Q336.616 321.751 338.002 323.739Q339.388 325.727 340.144 328.359L336.336 328.359Q335.776 325.447 333.256 323.851Q331.24 327.547 325.864 328.611L325.864 324.803ZM342.356 323.375L343.448 323.207L343.448 307.079L342.356 307.079L342.356 303.523L354.648 303.523L354.648 307.079L353.612 307.079L353.5 328.219L350.14 328.219L350.14 325.811L342.356 327.015L342.356 323.375ZM350.14 322.171L350.14 319.539L346.92 319.539L346.92 322.675L350.14 322.171ZM350.14 316.067L350.14 313.015L346.92 313.015L346.92 316.067L350.14 316.067ZM350.14 309.543L350.14 307.079L346.92 307.079L346.92 309.543L350.14 309.543ZM354.536 324.215Q357.364 322.227 359.324 319.259Q356.832 314.471 356.02 308.115L355.124 308.115L355.124 304.531L366.912 304.531Q366.38 313.183 363.216 319.287Q365.176 322.283 367.948 324.215L367.948 328.667Q363.944 326.203 361.256 322.451Q358.512 326.231 354.536 328.667L354.536 324.215ZM359.268 308.115Q359.912 312.259 361.284 315.563Q362.656 312.315 363.328 308.115L359.268 308.115ZM395.416 303.607L395.416 317.635L384.888 317.635L384.888 324.467L396.2 324.467L396.2 328.107L381.192 328.107L381.192 303.607L395.416 303.607ZM370.72 303.971L379.54 303.971L379.54 325.979L370.72 325.979L370.72 303.971ZM376.348 322.339L376.348 307.611L373.94 307.611L373.94 322.339L376.348 322.339ZM386.708 314.135L386.708 307.023L384.552 307.023L384.552 314.135L386.708 314.135ZM392.056 314.135L392.056 307.023L389.9 307.023L389.9 314.135L392.056 314.135ZM406.224 319.007L402.808 319.007L402.276 305.931L406.756 305.931L406.224 319.007ZM402.248 320.939L406.84 320.939L406.84 325.531L402.248 325.531L402.248 320.939Z">
</path>
</g>
<path d="M515.036 558.129L113.036 558.129C72.1673 558.129 39.0364 591.26 39.0364 632.129C39.0364 672.998 72.1673 706.129 113.036 706.129L515.036 706.129C555.905 706.129 589.036 672.998 589.036 632.129C589.036 591.26 555.905 558.129 515.036 558.129Z">
</path>
<g  mask="url(#mask-L1DdY8Iz4yvaGJGtb2WGS)">
<path    stroke="rgba(245, 24, 51, 1)" stroke-width="16"    d="M74.9236 617.841C80.926 631.048 146.962 735.69 148.994 739.753">
</path>
<path    stroke="rgba(245, 24, 51, 1)" stroke-width="16"    d="M548.924 617.841C542.854 631.048 476.084 735.69 474.029 739.753">
</path>
<path    stroke="rgba(245, 24, 51, 1)" stroke-width="16"    d="M142.924 617.841C148.926 631.048 214.962 735.69 216.994 739.753">
</path>
<path    stroke="rgba(245, 24, 51, 1)" stroke-width="16"    d="M480.167 617.841C474.098 631.048 407.327 735.69 405.273 739.753">
</path>
</g>
<rect  x="148.036376953125" y="625.12890625" width="320" height="121" rx="60.5"    fill="url(#linear_fill_COXdT42uxQys9l4Sovmhh_0)" >
</rect>
<rect  x="158.036376953125" y="632.12890625" width="300" height="107" rx="53.5"    fill="url(#linear_fill_QcfFjsJyy9jJp3RN3tnd5_0)" >
</rect>
<g >
<text transform="translate(243.036376953125, 636.708984375)">
<tspan x="0" y="69.6" font-size="60" line-height="0"  fill="#FFEFBA"  font-family="SourceHanSans-Regular" letter-spacing="0" >
确定</tspan>
</text>
</g>
<path d="M32.6833 342.523C32.6833 342.523 27.2136 369.876 70.9768 380.817C87.6506 384.985 60.7742 362.447 52.2209 355.027C46.1985 349.802 41.6399 346.748 38.1736 344.817C34.5452 342.794 32.6833 342.523 32.6833 342.523L32.6833 342.523Z"   fill="url(#linear_fill_OU-J0MRCLrkXFXkiypHiO)" >
</path>
<path d="M613.754 416.974C613.754 416.974 609.475 411.284 601.848 412.01C592.889 412.86 579.094 422.005 566.854 444.052C558.513 459.079 582.508 436.849 591.888 430.507C598.494 426.042 607.355 424.532 610.117 421.684C613.011 418.703 613.754 416.974 613.754 416.974L613.754 416.974Z"   fill="url(#linear_fill_GdTiLcKLa_R8wnjbdo5EH)" >
</path>
<defs>
<linearGradient id="linear_fill__ZfJxwbn1uJch5CgLOqmV" x1="83.328369140625" y1="41.216796875" x2="195.5882568359375" y2="146.548828125" gradientUnits="userSpaceOnUse">
<stop offset="0" stop-color="#6042FF"  />
<stop offset="0.6626989841461182" stop-color="#6041FF"  />
<stop offset="1" stop-color="#8765D9"  />
</linearGradient>
<linearGradient id="linear_fill_lAKJlh5cOekMevYxzHSDE" x1="170.095947265625" y1="162.21875" x2="316.232666015625" y2="220.048828125" gradientUnits="userSpaceOnUse">
<stop offset="0" stop-color="#FFCF65"  />
<stop offset="1" stop-color="#FFA031"  />
</linearGradient>
<linearGradient id="linear_fill_gpaziU6LLj4svvST4eBI2" x1="267.5091552734375" y1="11.779296875" x2="298.78985595703125" y2="111.857421875" gradientUnits="userSpaceOnUse">
<stop offset="0" stop-color="#BB6715"  />
<stop offset="0.1168471947312355" stop-color="#932D00"  />
<stop offset="0.9192318916320801" stop-color="#922C00"  />
<stop offset="1" stop-color="#B3600F"  />
</linearGradient>
<linearGradient id="linear_fill_3mU0XZctEWjgX78JnqqOA" x1="404.056396484375" y1="35.298828125" x2="404.056396484375" y2="54.7890625" gradientUnits="userSpaceOnUse">
<stop offset="0" stop-color="#FFD974"  />
<stop offset="1" stop-color="#FEAC00"  />
</linearGradient>
<linearGradient id="linear_fill_5rXlxaNSJMTXzPMW6OPx3_0" x1="314.036376953125" y1="552.8751721382141" x2="314.036376953125" y2="706.12890625" gradientUnits="userSpaceOnUse">
<stop offset="0" stop-color="#E30011"  />
<stop offset="0.5170590281486511" stop-color="#F4001D"  />
<stop offset="1" stop-color="#E8000A"  />
</linearGradient>
<linearGradient id="linear_fill_rJprTcGJyPqA2sXB55-6j_0" x1="314.036376953125" y1="548.9134451746941" x2="314.036376953125" y2="583.12890625" gradientUnits="userSpaceOnUse">
<stop offset="0" stop-color="#FA7541"  />
<stop offset="1" stop-color="#FFAD54"  />
</linearGradient>
<linearGradient id="linear_fill_f6w6toyaIR6jCtEr6plKx" x1="442.056396484375" y1="33.298828125" x2="442.056396484375" y2="52.7890625" gradientUnits="userSpaceOnUse">
<stop offset="0" stop-color="#FFD974"  />
<stop offset="1" stop-color="#FEAC00"  />
</linearGradient>
<linearGradient id="linear_fill_vvzjlOCJxrz9vWPmJjlWv_0" x1="314.036376953125" y1="413.1684725880623" x2="314.036376953125" y2="563.12890625" gradientUnits="userSpaceOnUse">
<stop offset="0" stop-color="#FF2204"  />
<stop offset="1" stop-color="#FF2B00"  />
</linearGradient>
<linearGradient id="linear_fill_MabxqQqQaNXF0MGq3wdQ-" x1="263.2279052734375" y1="220.0625" x2="255.6116943359375" y2="485.11328125" gradientUnits="userSpaceOnUse">
<stop offset="0" stop-color="#FF6A00"  />
<stop offset="0.5005298256874084" stop-color="#FF6400"  />
<stop offset="1" stop-color="#FF2200"  />
</linearGradient>
<linearGradient id="linear_fill_mBRJSmpjFATEOV9ehbK9G" x1="555.6814575195312" y1="83.29296875" x2="456.337158203125" y2="158.47265625" gradientUnits="userSpaceOnUse">
<stop offset="0" stop-color="#00FFBF"  />
<stop offset="1" stop-color="#9EF175"  />
</linearGradient>
<linearGradient id="linear_fill_fgGE41ns4b8r-OHpo85T-" x1="608.2464599609375" y1="199.328125" x2="387.79351806640625" y2="372.033203125" gradientUnits="userSpaceOnUse">
<stop offset="0" stop-color="#FFDB42"  />
<stop offset="0.6403849720954895" stop-color="#FFA823"  />
<stop offset="1" stop-color="#FF7000" stop-opacity="0" />
</linearGradient>
<filter id="filter_QLlSysKLQPJADek-toUFU" x="271.131591796875" y="87.818359375" width="313.201416015625" height="246.642578125" filterUnits="userSpaceOnUse" color-interpolation-filters="sRGB">
<feFlood flood-opacity="0" result="feFloodId_QLlSysKLQPJADek-toUFU"/>
<feColorMatrix in="SourceAlpha" type="matrix" values="0 0 0 0 0 0 0 0 0 0 0 0 0 0 0 0 0 0 127 0" result="hardAlpha_QLlSysKLQPJADek-toUFU"/>
<feOffset dx="0" dy="20"/>
<feGaussianBlur stdDeviation="5"/>
<feComposite in2="hardAlpha_QLlSysKLQPJADek-toUFU" operator="out"/>
<feColorMatrix type="matrix" values="0 0 0 0 1 0 0 0 0 0.15294117647058825 0 0 0 0 0.00392156862745098 0 0 0 0.2 0"/>
<feBlend mode="normal" in2="feFloodId_QLlSysKLQPJADek-toUFU" result="dropShadow_1_QLlSysKLQPJADek-toUFU"/>
<feBlend mode="normal" in="SourceGraphic" in2="dropShadow_1_QLlSysKLQPJADek-toUFU" result="shape_QLlSysKLQPJADek-toUFU"/>
</filter>
<linearGradient id="linear_fill_h2KcD1wTohFev_QwkP1Bw" x1="462.1429443359375" y1="56.953125" x2="390.60784912109375" y2="91.35546875" gradientUnits="userSpaceOnUse">
<stop offset="0" stop-color="#FDD8A2"  />
<stop offset="1" stop-color="#FEF9D6"  />
</linearGradient>
<linearGradient id="linear_fill_W4y3pH25uuJJjXQHGqr7k" x1="374.793212890625" y1="89.548828125" x2="447.712158203125" y2="95.595703125" gradientUnits="userSpaceOnUse">
<stop offset="0" stop-color="#FFCE6A"  />
<stop offset="1" stop-color="#FFA526"  />
</linearGradient>
<linearGradient id="linear_fill_w9czZes-AY3UpI5wnJqnz" x1="18.9033203125" y1="173.5703125" x2="185.3096923828125" y2="312.51171875" gradientUnits="userSpaceOnUse">
<stop offset="0" stop-color="#FFD123"  />
<stop offset="0.5944250226020813" stop-color="#FFD223"  />
<stop offset="1" stop-color="#FFD223" stop-opacity="0" />
</linearGradient>
<linearGradient id="linear_fill_TaqrJ_odJ2QzlbaCz0uts" x1="244.4444580078125" y1="185.84765625" x2="434.95343017578125" y2="182.26953125" gradientUnits="userSpaceOnUse">
<stop offset="0" stop-color="#FFD3B2"  />
<stop offset="1" stop-color="#FFB883"  />
</linearGradient>
<filter id="filter_TaqrJ_odJ2QzlbaCz0uts" x="216.963623046875" y="151.201171875" width="246.858154296875" height="115.427734375" filterUnits="userSpaceOnUse" color-interpolation-filters="sRGB">
<feFlood flood-opacity="0" result="feFloodId_TaqrJ_odJ2QzlbaCz0uts"/>
<feColorMatrix in="SourceAlpha" type="matrix" values="0 0 0 0 0 0 0 0 0 0 0 0 0 0 0 0 0 0 127 0" result="hardAlpha_TaqrJ_odJ2QzlbaCz0uts"/>
<feOffset dx="5" dy="5"/>
<feGaussianBlur stdDeviation="5"/>
<feComposite in2="hardAlpha_TaqrJ_odJ2QzlbaCz0uts" operator="out"/>
<feColorMatrix type="matrix" values="0 0 0 0 1 0 0 0 0 0.5372549019607843 0 0 0 0 0.2784313725490196 0 0 0 0.5 0"/>
<feBlend mode="normal" in2="feFloodId_TaqrJ_odJ2QzlbaCz0uts" result="dropShadow_1_TaqrJ_odJ2QzlbaCz0uts"/>
<feBlend mode="normal" in="SourceGraphic" in2="dropShadow_1_TaqrJ_odJ2QzlbaCz0uts" result="shape_TaqrJ_odJ2QzlbaCz0uts"/>
</filter>
<linearGradient id="linear_fill_ol2DC1_b0IeqafeF6V-C1" x1="200.480224609375" y1="159.794921875" x2="240.2314453125" y2="196.20703125" gradientUnits="userSpaceOnUse">
<stop offset="0" stop-color="#FFC95E"  />
<stop offset="1" stop-color="#FFA939"  />
</linearGradient>
<linearGradient id="linear_fill_SKcOQWytcWTfmqnzOJk3N" x1="354.056396484375" y1="19.298828125" x2="354.056396484375" y2="38.7890625" gradientUnits="userSpaceOnUse">
<stop offset="0" stop-color="#FFD974"  />
<stop offset="1" stop-color="#FEAC00"  />
</linearGradient>
<linearGradient id="linear_fill_C7Bqg47wIEExfWrVyYxei" x1="25.0562744140625" y1="72.298828125" x2="25.0562744140625" y2="91.7890625" gradientUnits="userSpaceOnUse">
<stop offset="0" stop-color="#FFD974"  />
<stop offset="1" stop-color="#FEAC00"  />
</linearGradient>
<linearGradient id="linear_fill_veD7vQpgW-kZmQF0HJ6jQ" x1="392.056396484375" y1="4.298828125" x2="392.056396484375" y2="23.7890625" gradientUnits="userSpaceOnUse">
<stop offset="0" stop-color="#FFD974"  />
<stop offset="1" stop-color="#FEAC00"  />
</linearGradient>
<filter id="filter_NZldw51vrDziRzf6uxUMt" x="221.2164306640625" y="270.498046875" width="222.630859375" height="117.6103515625" filterUnits="userSpaceOnUse" color-interpolation-filters="sRGB">
<feFlood flood-opacity="0" result="feFloodId_NZldw51vrDziRzf6uxUMt"/>
<feColorMatrix in="SourceAlpha" type="matrix" values="0 0 0 0 0 0 0 0 0 0 0 0 0 0 0 0 0 0 127 0" result="hardAlpha_NZldw51vrDziRzf6uxUMt"/>
<feOffset dx="0" dy="10"/>
<feGaussianBlur stdDeviation="10"/>
<feComposite in2="hardAlpha_NZldw51vrDziRzf6uxUMt" operator="out"/>
<feColorMatrix type="matrix" values="0 0 0 0 1 0 0 0 0 0.1568627450980392 0 0 0 0 0.00392156862745098 0 0 0 0.5 0"/>
<feBlend mode="normal" in2="feFloodId_NZldw51vrDziRzf6uxUMt" result="dropShadow_1_NZldw51vrDziRzf6uxUMt"/>
<feBlend mode="normal" in="SourceGraphic" in2="dropShadow_1_NZldw51vrDziRzf6uxUMt" result="shape_NZldw51vrDziRzf6uxUMt"/>
</filter>
<mask id="mask-L1DdY8Iz4yvaGJGtb2WGS" style="mask-type:alpha" maskUnits="userSpaceOnUse">
<path fill="white" d="M515.036 558.129L113.036 558.129C72.1673 558.129 39.0364 591.26 39.0364 632.129C39.0364 672.998 72.1673 706.129 113.036 706.129L515.036 706.129C555.905 706.129 589.036 672.998 589.036 632.129C589.036 591.26 555.905 558.129 515.036 558.129Z">
</path>
</mask>
<linearGradient id="linear_fill_COXdT42uxQys9l4Sovmhh_0" x1="308.036376953125" y1="625.12890625" x2="308.036376953125" y2="746.12890625" gradientUnits="userSpaceOnUse">
<stop offset="0" stop-color="#FFEBA1"  />
<stop offset="1" stop-color="#FDD25D"  />
</linearGradient>
<linearGradient id="linear_fill_QcfFjsJyy9jJp3RN3tnd5_0" x1="308.036376953125" y1="632.12890625" x2="308.036376953125" y2="739.12890625" gradientUnits="userSpaceOnUse">
<stop offset="0" stop-color="#FF7E42"  />
<stop offset="0.46916499733924866" stop-color="#E12CAB"  />
<stop offset="1" stop-color="#C516FA"  />
</linearGradient>
<linearGradient id="linear_fill_OU-J0MRCLrkXFXkiypHiO" x1="35.719970703125" y1="342.5234375" x2="71.6680908203125" y2="381.326171875" gradientUnits="userSpaceOnUse">
<stop offset="0" stop-color="#FFBB25"  />
<stop offset="1" stop-color="#FFE187"  />
</linearGradient>
<linearGradient id="linear_fill_GdTiLcKLa_R8wnjbdo5EH" x1="613.5352172851562" y1="417.7900390625" x2="566.15087890625" y2="444.22265625" gradientUnits="userSpaceOnUse">
<stop offset="0" stop-color="#FF862A"  />
<stop offset="1" stop-color="#FFE187"  />
</linearGradient>
</defs>
</svg>
