<?xml version="1.0" standalone="no"?><!DOCTYPE svg PUBLIC "-//W3C//DTD SVG 1.1//EN" "http://www.w3.org/Graphics/SVG/1.1/DTD/svg11.dtd"><svg t="1724842320372" class="icon" viewBox="0 0 1078 1024" version="1.1" xmlns="http://www.w3.org/2000/svg" p-id="15959" xmlns:xlink="http://www.w3.org/1999/xlink" width="67.375" height="64"><path d="M1077.895 952.32c-20.21 3.395-40.421 3.395-60.632 3.395-70.764 0-138.132-13.635-198.764-40.96C730.974 983.04 623.185 1024 505.263 1024 229.053 1024 0 795.325 0 512S229.053 0 508.659 0c279.552 0 508.604 228.675 508.604 512 0 81.92-20.21 156.995-53.895 225.28 23.606 81.92 60.632 153.6 114.527 215.04zM674.348 675.438H472.182c5.313-9.178 12.258-18.598 20.832-28.26 8.575-9.66 28.924-29.225 61.048-58.693 32.125-29.467 54.346-52.05 66.665-67.75 18.598-23.671 32.184-46.315 40.759-67.933 8.574-21.617 12.862-44.382 12.862-68.294 0-42.028-14.975-77.17-44.926-105.43-29.95-28.26-71.132-42.39-123.546-42.39-47.824 0-87.678 12.197-119.56 36.592-31.884 24.396-50.844 64.611-56.882 120.648l101.445 10.144c1.932-29.709 9.178-50.964 21.738-63.765 12.56-12.802 29.468-19.203 50.723-19.203 21.497 0 38.344 6.1 50.541 18.297 12.198 12.198 18.297 29.648 18.297 52.353 0 20.53-7.005 41.303-21.014 62.316-10.386 15.217-38.525 44.201-84.417 86.953-57.003 52.897-95.165 95.347-114.488 127.35-19.323 32.004-30.917 65.88-34.781 101.627h356.87v-94.562z" fill="#EE824A" p-id="15960"></path></svg>